<svg xmlns="http://www.w3.org/2000/svg" width="1100" height="720" viewBox="0 0 1100 720">

<style>
.box { fill: #f8fafc; stroke: #1f2937; stroke-width: 1.4; rx: 8; }
.box2 { fill: #eef6ff; stroke: #2563eb; stroke-width: 1.4; rx: 8; }
.box3 { fill: #f0fdf4; stroke: #16a34a; stroke-width: 1.4; rx: 8; }
.box4 { fill: #fff7ed; stroke: #ea580c; stroke-width: 1.4; rx: 8; }
.text { font-family: Arial, sans-serif; font-size: 13px; fill: #111827; }
.title { font-family: Arial, sans-serif; font-size: 18px; font-weight: 700; fill: #111827; }
.small { font-family: Arial, sans-serif; font-size: 11px; fill: #374151; }
.line { stroke: #374151; stroke-width: 1.5; marker-end: url(#arrow); fill: none; }
.dashed { stroke: #6b7280; stroke-width: 1.3; stroke-dasharray: 5 4; marker-end: url(#arrow); fill: none; }
</style>

<defs><marker id="arrow" markerWidth="10" markerHeight="10" refX="8" refY="3" orient="auto" markerUnits="strokeWidth"><path d="M0,0 L0,6 L9,3 z" fill="#374151" /></marker></defs>
<rect x="0" y="0" width="1100" height="720" fill="#ffffff" />
<text x="24" y="32" class="title">Diagrama de clases principales obtenido del c?digo</text>
<rect x="60" y="90" width="240" height="190" class="box4" />
<text x="72" y="114" class="text">Usuario</text>
<text x="72" y="131" class="small">id</text>
<text x="72" y="148" class="small">estudiante</text>
<text x="72" y="165" class="small">username</text>
<text x="72" y="182" class="small">password_hash</text>
<text x="72" y="199" class="small">rol</text>
<rect x="320" y="90" width="240" height="190" class="box4" />
<text x="332" y="114" class="text">Publicacion</text>
<text x="332" y="131" class="small">id</text>
<text x="332" y="148" class="small">estudiante</text>
<text x="332" y="165" class="small">ciclo</text>
<text x="332" y="182" class="small">red_social</text>
<text x="332" y="199" class="small">formato</text>
<text x="332" y="216" class="small">fecha</text>
<text x="332" y="233" class="small">alcance</text>
<text x="332" y="250" class="small">interacciones</text>
<rect x="60" y="360" width="240" height="190" class="box3" />
<text x="72" y="384" class="text">AuthService</text>
<text x="72" y="401" class="small">login()</text>
<text x="72" y="418" class="small">verify_token()</text>
<text x="72" y="435" class="small">create_token()</text>
<text x="72" y="452" class="small">hash_password()</text>
<rect x="320" y="360" width="240" height="190" class="box3" />
<text x="332" y="384" class="text">AnalyticsService</text>
<text x="332" y="401" class="small">get_metricas_estudiante()</text>
<text x="332" y="418" class="small">get_interacciones_tiempo()</text>
<text x="332" y="435" class="small">get_alcance_por_ciclo()</text>
<text x="332" y="452" class="small">get_top_engagement()</text>
<rect x="620" y="90" width="240" height="190" class="box2" />
<text x="632" y="114" class="text">SQLiteUsuarioRepository</text>
<text x="632" y="131" class="small">find_by_username()</text>
<text x="632" y="148" class="small">save_many()</text>
<text x="632" y="165" class="small">get_usernames()</text>
<rect x="620" y="360" width="240" height="190" class="box2" />
<text x="632" y="384" class="text">SQLitePublicacionRepository</text>
<text x="632" y="401" class="small">find_all()</text>
<text x="632" y="418" class="small">find_by_estudiante()</text>
<text x="632" y="435" class="small">get_estudiantes()</text>
<line x1="180" y1="360" x2="180" y2="280" class="line" />
<line x1="300" y1="450" x2="320" y2="450" class="line" />
<line x1="620" y1="180" x2="300" y2="180" class="line" />
<line x1="620" y1="450" x2="560" y2="450" class="line" />
</svg>
