<svg xmlns="http://www.w3.org/2000/svg" width="1100" height="720" viewBox="0 0 1100 720">

<style>
.box { fill: #f8fafc; stroke: #1f2937; stroke-width: 1.4; rx: 8; }
.box2 { fill: #eef6ff; stroke: #2563eb; stroke-width: 1.4; rx: 8; }
.box3 { fill: #f0fdf4; stroke: #16a34a; stroke-width: 1.4; rx: 8; }
.box4 { fill: #fff7ed; stroke: #ea580c; stroke-width: 1.4; rx: 8; }
.text { font-family: Arial, sans-serif; font-size: 13px; fill: #111827; }
.title { font-family: Arial, sans-serif; font-size: 18px; font-weight: 700; fill: #111827; }
.small { font-family: Arial, sans-serif; font-size: 11px; fill: #374151; }
.line { stroke: #374151; stroke-width: 1.5; marker-end: url(#arrow); fill: none; }
.dashed { stroke: #6b7280; stroke-width: 1.3; stroke-dasharray: 5 4; marker-end: url(#arrow); fill: none; }
</style>

<defs><marker id="arrow" markerWidth="10" markerHeight="10" refX="8" refY="3" orient="auto" markerUnits="strokeWidth"><path d="M0,0 L0,6 L9,3 z" fill="#374151" /></marker></defs>
<rect x="0" y="0" width="1100" height="720" fill="#ffffff" />
<text x="24" y="32" class="title">Vista de procesos del sistema</text>
<rect x="80" y="110" width="160" height="75" class="box2" />
<text x="92" y="134" class="text">Abrir login</text>
<rect x="300" y="110" width="160" height="75" class="box2" />
<text x="312" y="134" class="text">Cargar estudiantes</text>
<rect x="520" y="110" width="160" height="75" class="box2" />
<text x="532" y="134" class="text">Validar credenciales</text>
<rect x="740" y="110" width="160" height="75" class="box2" />
<text x="752" y="134" class="text">Generar token</text>
<rect x="80" y="330" width="160" height="75" class="box2" />
<text x="92" y="354" class="text">Solicitar dashboard</text>
<rect x="300" y="330" width="160" height="75" class="box2" />
<text x="312" y="354" class="text">Calcular m?tricas</text>
<rect x="520" y="330" width="160" height="75" class="box2" />
<text x="532" y="354" class="text">Renderizar gr?ficos</text>
<rect x="740" y="330" width="160" height="75" class="box2" />
<text x="752" y="354" class="text">Filtrar por red</text>
<line x1="240" y1="147" x2="300" y2="147" class="line" />
<line x1="460" y1="147" x2="520" y2="147" class="line" />
<line x1="680" y1="147" x2="740" y2="147" class="line" />
<line x1="820" y1="185" x2="160" y2="330" class="line" />
<line x1="240" y1="367" x2="300" y2="367" class="line" />
<line x1="460" y1="367" x2="520" y2="367" class="line" />
<line x1="680" y1="367" x2="740" y2="367" class="line" />
</svg>
