<svg xmlns="http://www.w3.org/2000/svg" width="1100" height="720" viewBox="0 0 1100 720">

<style>
.box { fill: #f8fafc; stroke: #1f2937; stroke-width: 1.4; rx: 8; }
.box2 { fill: #eef6ff; stroke: #2563eb; stroke-width: 1.4; rx: 8; }
.box3 { fill: #f0fdf4; stroke: #16a34a; stroke-width: 1.4; rx: 8; }
.box4 { fill: #fff7ed; stroke: #ea580c; stroke-width: 1.4; rx: 8; }
.text { font-family: Arial, sans-serif; font-size: 13px; fill: #111827; }
.title { font-family: Arial, sans-serif; font-size: 18px; font-weight: 700; fill: #111827; }
.small { font-family: Arial, sans-serif; font-size: 11px; fill: #374151; }
.line { stroke: #374151; stroke-width: 1.5; marker-end: url(#arrow); fill: none; }
.dashed { stroke: #6b7280; stroke-width: 1.3; stroke-dasharray: 5 4; marker-end: url(#arrow); fill: none; }
</style>

<defs><marker id="arrow" markerWidth="10" markerHeight="10" refX="8" refY="3" orient="auto" markerUnits="strokeWidth"><path d="M0,0 L0,6 L9,3 z" fill="#374151" /></marker></defs>
<rect x="0" y="0" width="1100" height="720" fill="#ffffff" />
<text x="24" y="32" class="title">Vista l?gica por paquetes derivados del c?digo</text>
<rect x="60" y="100" width="210" height="150" class="box2" />
<text x="72" y="124" class="text">Angular Frontend</text>
<text x="72" y="141" class="small">features/login</text>
<text x="72" y="158" class="small">perfil-dashboard</text>
<text x="72" y="175" class="small">global-dashboard</text>
<text x="72" y="192" class="small">core services</text>
<rect x="320" y="100" width="210" height="150" class="box2" />
<text x="332" y="124" class="text">FastAPI API</text>
<text x="332" y="141" class="small">api/routes</text>
<text x="332" y="158" class="small">dependencies</text>
<text x="332" y="175" class="small">schemas</text>
<rect x="580" y="100" width="210" height="150" class="box3" />
<text x="592" y="124" class="text">Services</text>
<text x="592" y="141" class="small">AuthService</text>
<text x="592" y="158" class="small">AnalyticsService</text>
<text x="592" y="175" class="small">GeneradorDatosService</text>
<rect x="840" y="100" width="210" height="150" class="box3" />
<text x="852" y="124" class="text">Repositories</text>
<text x="852" y="141" class="small">SQLitePublicacionRepository</text>
<text x="852" y="158" class="small">SQLiteUsuarioRepository</text>
<rect x="580" y="340" width="210" height="150" class="box4" />
<text x="592" y="364" class="text">Models</text>
<text x="592" y="381" class="small">Usuario</text>
<text x="592" y="398" class="small">Publicacion</text>
<text x="592" y="415" class="small">FiltrosDashboard</text>
<rect x="840" y="340" width="210" height="150" class="box4" />
<text x="852" y="364" class="text">SQLite</text>
<text x="852" y="381" class="small">epis_data.db</text>
<text x="852" y="398" class="small">publicaciones</text>
<text x="852" y="415" class="small">usuarios</text>
<line x1="270" y1="175" x2="320" y2="175" class="line" />
<line x1="530" y1="175" x2="580" y2="175" class="line" />
<line x1="790" y1="175" x2="840" y2="175" class="line" />
<line x1="685" y1="250" x2="685" y2="340" class="line" />
<line x1="945" y1="250" x2="945" y2="340" class="line" />
<line x1="790" y1="415" x2="840" y2="415" class="line" />
</svg>
