<svg xmlns="http://www.w3.org/2000/svg" width="1100" height="720" viewBox="0 0 1100 720">

<style>
.box { fill: #f8fafc; stroke: #1f2937; stroke-width: 1.4; rx: 8; }
.box2 { fill: #eef6ff; stroke: #2563eb; stroke-width: 1.4; rx: 8; }
.box3 { fill: #f0fdf4; stroke: #16a34a; stroke-width: 1.4; rx: 8; }
.box4 { fill: #fff7ed; stroke: #ea580c; stroke-width: 1.4; rx: 8; }
.text { font-family: Arial, sans-serif; font-size: 13px; fill: #111827; }
.title { font-family: Arial, sans-serif; font-size: 18px; font-weight: 700; fill: #111827; }
.small { font-family: Arial, sans-serif; font-size: 11px; fill: #374151; }
.line { stroke: #374151; stroke-width: 1.5; marker-end: url(#arrow); fill: none; }
.dashed { stroke: #6b7280; stroke-width: 1.3; stroke-dasharray: 5 4; marker-end: url(#arrow); fill: none; }
</style>

<defs><marker id="arrow" markerWidth="10" markerHeight="10" refX="8" refY="3" orient="auto" markerUnits="strokeWidth"><path d="M0,0 L0,6 L9,3 z" fill="#374151" /></marker></defs>
<rect x="0" y="0" width="1100" height="720" fill="#ffffff" />
<text x="24" y="32" class="title">Diagrama de secuencia: autenticaci?n</text>
<rect x="50" y="70" width="130" height="45" class="box2" />
<text x="62" y="94" class="text">Estudiante</text>
<line x1="115" y1="115" x2="115" y2="640" stroke="#d1d5db" stroke-width="1" />
<rect x="210" y="70" width="130" height="45" class="box2" />
<text x="222" y="94" class="text">LoginComponent</text>
<line x1="275" y1="115" x2="275" y2="640" stroke="#d1d5db" stroke-width="1" />
<rect x="380" y="70" width="130" height="45" class="box2" />
<text x="392" y="94" class="text">AuthClientService</text>
<line x1="445" y1="115" x2="445" y2="640" stroke="#d1d5db" stroke-width="1" />
<rect x="560" y="70" width="130" height="45" class="box2" />
<text x="572" y="94" class="text">AuthApiController</text>
<line x1="625" y1="115" x2="625" y2="640" stroke="#d1d5db" stroke-width="1" />
<rect x="740" y="70" width="130" height="45" class="box2" />
<text x="752" y="94" class="text">AuthService</text>
<line x1="805" y1="115" x2="805" y2="640" stroke="#d1d5db" stroke-width="1" />
<rect x="920" y="70" width="130" height="45" class="box2" />
<text x="932" y="94" class="text">SQLite usuarios</text>
<line x1="985" y1="115" x2="985" y2="640" stroke="#d1d5db" stroke-width="1" />
<line x1="115" y1="150" x2="210" y2="150" class="line" />
<text x="123" y="144" class="small">credenciales</text>
<line x1="275" y1="195" x2="380" y2="195" class="line" />
<text x="283" y="189" class="small">login()</text>
<line x1="445" y1="240" x2="560" y2="240" class="line" />
<text x="453" y="234" class="small">POST /api/auth/login</text>
<line x1="625" y1="285" x2="740" y2="285" class="line" />
<text x="633" y="279" class="small">login(username,password)</text>
<line x1="805" y1="330" x2="920" y2="330" class="line" />
<text x="813" y="324" class="small">find_by_username()</text>
<line x1="920" y1="375" x2="805" y2="375" class="line" />
<text x="813" y="369" class="small">Usuario</text>
<line x1="740" y1="420" x2="625" y2="420" class="line" />
<text x="633" y="414" class="small">token</text>
<line x1="560" y1="465" x2="445" y2="465" class="line" />
<text x="453" y="459" class="small">SessionResponse</text>
<line x1="380" y1="510" x2="275" y2="510" class="line" />
<text x="283" y="504" class="small">guardar sesi?n</text>
<line x1="210" y1="555" x2="115" y2="555" class="line" />
<text x="123" y="549" class="small">redirigir</text>
</svg>
