<svg xmlns="http://www.w3.org/2000/svg" width="1100" height="720" viewBox="0 0 1100 720">

<style>
.box { fill: #f8fafc; stroke: #1f2937; stroke-width: 1.4; rx: 8; }
.box2 { fill: #eef6ff; stroke: #2563eb; stroke-width: 1.4; rx: 8; }
.box3 { fill: #f0fdf4; stroke: #16a34a; stroke-width: 1.4; rx: 8; }
.box4 { fill: #fff7ed; stroke: #ea580c; stroke-width: 1.4; rx: 8; }
.text { font-family: Arial, sans-serif; font-size: 13px; fill: #111827; }
.title { font-family: Arial, sans-serif; font-size: 18px; font-weight: 700; fill: #111827; }
.small { font-family: Arial, sans-serif; font-size: 11px; fill: #374151; }
.line { stroke: #374151; stroke-width: 1.5; marker-end: url(#arrow); fill: none; }
.dashed { stroke: #6b7280; stroke-width: 1.3; stroke-dasharray: 5 4; marker-end: url(#arrow); fill: none; }
</style>

<defs><marker id="arrow" markerWidth="10" markerHeight="10" refX="8" refY="3" orient="auto" markerUnits="strokeWidth"><path d="M0,0 L0,6 L9,3 z" fill="#374151" /></marker></defs>
<rect x="0" y="0" width="1100" height="720" fill="#ffffff" />
<text x="24" y="32" class="title">Vista de casos de uso</text>
<rect x="40" y="120" width="160" height="70" class="box3" />
<text x="52" y="144" class="text">Estudiante EPIS</text>
<rect x="40" y="300" width="190" height="70" class="box3" />
<text x="52" y="324" class="text">Docente / Responsable</text>
<text x="52" y="341" class="small">acad?mico</text>
<rect x="40" y="500" width="160" height="70" class="box3" />
<text x="52" y="524" class="text">Equipo t?cnico</text>
<rect x="360" y="80" width="180" height="80" class="box2" />
<text x="372" y="104" class="text">Iniciar sesi?n</text>
<rect x="610" y="80" width="180" height="80" class="box2" />
<text x="622" y="104" class="text">Consultar lista</text>
<text x="622" y="121" class="small">de estudiantes</text>
<rect x="360" y="210" width="180" height="80" class="box2" />
<text x="372" y="234" class="text">Dashboard</text>
<text x="372" y="251" class="small">personal</text>
<rect x="610" y="210" width="180" height="80" class="box2" />
<text x="622" y="234" class="text">Filtrar perfil</text>
<text x="622" y="251" class="small">por red social</text>
<rect x="360" y="360" width="180" height="80" class="box2" />
<text x="372" y="384" class="text">Dashboard</text>
<text x="372" y="401" class="small">global</text>
<rect x="610" y="360" width="180" height="80" class="box2" />
<text x="622" y="384" class="text">Filtrar global</text>
<text x="622" y="401" class="small">por red social</text>
<rect x="360" y="510" width="180" height="80" class="box2" />
<text x="372" y="534" class="text">Visualizar</text>
<text x="372" y="551" class="small">gr?ficos</text>
<rect x="610" y="510" width="180" height="80" class="box2" />
<text x="622" y="534" class="text">Validar Terraform</text>
<text x="622" y="551" class="small">e Infracost</text>
<line x1="200" y1="155" x2="360" y2="120" class="line" />
<line x1="200" y1="335" x2="360" y2="250" class="line" />
<line x1="200" y1="535" x2="360" y2="550" class="line" />
<line x1="200" y1="155" x2="610" y2="115" class="line" />
<line x1="200" y1="155" x2="360" y2="245" class="line" />
<line x1="200" y1="155" x2="610" y2="245" class="line" />
<line x1="230" y1="335" x2="360" y2="400" class="line" />
<line x1="230" y1="335" x2="610" y2="400" class="line" />
<line x1="230" y1="335" x2="360" y2="545" class="line" />
<line x1="200" y1="535" x2="610" y2="545" class="line" />
</svg>
