<?plantuml 1.2026.2?><svg xmlns="http://www.w3.org/2000/svg" xmlns:xlink="http://www.w3.org/1999/xlink" contentStyleType="text/css" data-diagram-type="DESCRIPTION" height="726px" preserveAspectRatio="none" style="width:970px;height:726px;background:#FFFFFF;" version="1.1" viewBox="0 0 970 726" width="970px" zoomAndPan="magnify"><title>Diagrama de Casos de Uso - EPIS Analytics</title><defs/><g><g class="title" data-source-line="1"><text fill="#000000" font-family="sans-serif" font-size="14" font-weight="bold" lengthAdjust="spacing" textLength="290.9922" x="332.5039" y="24.5332">Diagrama de Casos de Uso - EPIS Analytics</text></g><!--cluster EPIS Analytics--><g class="cluster" data-qualified-name="EPIS Analytics" data-source-line="28" id="ent0005"><rect fill="#F8FAFC" height="354" rx="2.5" ry="2.5" style="stroke:#CBD5E1;stroke-width:1;" width="765" x="199" y="247.9494"/><text fill="#0F172A" font-family="sans-serif" font-size="14" font-weight="bold" lengthAdjust="spacing" textLength="98.041" x="532.4795" y="264.4826">EPIS Analytics</text></g><!--entity UC_Login--><g class="entity" data-qualified-name="EPIS Analytics.UC_Login" data-source-line="29" id="ent0006"><ellipse cx="281.7728" cy="479.9011" fill="#EFF6FF" rx="60.7728" ry="15.4517" style="stroke:#2563EB;stroke-width:0.5;"/><text fill="#0F172A" font-family="sans-serif" font-size="14" lengthAdjust="spacing" textLength="81.7031" x="240.9213" y="485.2058">Iniciar sesi&#243;n</text></g><!--entity UC_Estudiantes--><g class="entity" data-qualified-name="EPIS Analytics.UC_Estudiantes" data-source-line="30" id="ent0007"><ellipse cx="281.9837" cy="312.1937" fill="#EFF6FF" rx="66.9837" ry="27.7443" style="stroke:#2563EB;stroke-width:0.5;"/><text fill="#0F172A" font-family="sans-serif" font-size="14" lengthAdjust="spacing" textLength="88.7031" x="237.6321" y="308.468">Consultar lista</text><text fill="#0F172A" font-family="sans-serif" font-size="14" lengthAdjust="spacing" textLength="91.0684" x="236.4495" y="326.0774">de estudiantes</text></g><!--entity UC_Perfil--><g class="entity" data-qualified-name="EPIS Analytics.UC_Perfil" data-source-line="31" id="ent0008"><ellipse cx="553.9262" cy="399.9201" fill="#EFF6FF" rx="85.9262" ry="25.4707" style="stroke:#2563EB;stroke-width:0.5;"/><text fill="#0F172A" font-family="sans-serif" font-size="14" lengthAdjust="spacing" textLength="129.9717" x="488.9404" y="400.0708">Consultar dashboard</text><text fill="#0F172A" font-family="sans-serif" font-size="14" lengthAdjust="spacing" textLength="53.7031" x="527.0747" y="417.6802">personal</text></g><!--entity UC_FiltroPerfil--><g class="entity" data-qualified-name="EPIS Analytics.UC_FiltroPerfil" data-source-line="32" id="ent0009"><ellipse cx="282.1974" cy="401.9189" fill="#EFF6FF" rx="60.1974" ry="26.9695" style="stroke:#2563EB;stroke-width:0.5;"/><text fill="#0F172A" font-family="sans-serif" font-size="14" lengthAdjust="spacing" textLength="70.0068" x="247.194" y="397.0713">Filtrar perfil</text><text fill="#0F172A" font-family="sans-serif" font-size="14" lengthAdjust="spacing" textLength="84.041" x="240.1769" y="414.6807">por red social</text></g><!--entity UC_Global--><g class="entity" data-qualified-name="EPIS Analytics.UC_Global" data-source-line="33" id="ent0010"><ellipse cx="554.045" cy="551.1813" fill="#EFF6FF" rx="85.045" ry="25.2319" style="stroke:#2563EB;stroke-width:0.5;"/><text fill="#0F172A" font-family="sans-serif" font-size="14" lengthAdjust="spacing" textLength="129.9717" x="489.0591" y="551.7198">Consultar dashboard</text><text fill="#0F172A" font-family="sans-serif" font-size="14" lengthAdjust="spacing" textLength="37.3652" x="535.3624" y="569.3292">global</text></g><!--entity UC_FiltroGlobal--><g class="entity" data-qualified-name="EPIS Analytics.UC_FiltroGlobal" data-source-line="34" id="ent0011"><ellipse cx="282.25" cy="557.86" fill="#EFF6FF" rx="61.25" ry="27.4106" style="stroke:#2563EB;stroke-width:0.5;"/><text fill="#0F172A" font-family="sans-serif" font-size="14" lengthAdjust="spacing" textLength="77.0273" x="243.7363" y="553.6558">Filtrar global</text><text fill="#0F172A" font-family="sans-serif" font-size="14" lengthAdjust="spacing" textLength="84.041" x="240.2295" y="571.2652">por red social</text></g><!--entity UC_Graficos--><g class="entity" data-qualified-name="EPIS Analytics.UC_Graficos" data-source-line="35" id="ent0012"><ellipse cx="866.2122" cy="377.0973" fill="#EFF6FF" rx="80.2122" ry="26.1479" style="stroke:#2563EB;stroke-width:0.5;"/><text fill="#0F172A" font-family="sans-serif" font-size="14" lengthAdjust="spacing" textLength="117.4756" x="807.4744" y="376.1821">Visualizar m&#233;tricas</text><text fill="#0F172A" font-family="sans-serif" font-size="14" lengthAdjust="spacing" textLength="75.4824" x="828.471" y="393.7915">con gr&#225;ficos</text></g><!--entity UC_Token--><g class="entity" data-qualified-name="EPIS Analytics.UC_Token" data-source-line="36" id="ent0013"><ellipse cx="865.7554" cy="522.0517" fill="#EFF6FF" rx="81.7554" ry="26.6024" style="stroke:#2563EB;stroke-width:0.5;"/><text fill="#0F172A" font-family="sans-serif" font-size="14" lengthAdjust="spacing" textLength="88.71" x="821.4005" y="516.658">Proteger rutas</text><text fill="#0F172A" font-family="sans-serif" font-size="14" lengthAdjust="spacing" textLength="117.5166" x="806.9971" y="534.2674">privadas con token</text></g><!--entity UC_Infra--><g class="entity" data-qualified-name="EPIS Analytics.UC_Infra" data-source-line="37" id="ent0014"><ellipse cx="554.0599" cy="312.8379" fill="#EFF6FF" rx="90.0599" ry="25.3886" style="stroke:#2563EB;stroke-width:0.5;"/><text fill="#0F172A" font-family="sans-serif" font-size="14" lengthAdjust="spacing" textLength="136.9512" x="485.5843" y="313.1213">Validar infraestructura</text><text fill="#0F172A" font-family="sans-serif" font-size="14" lengthAdjust="spacing" textLength="51.3516" x="528.3841" y="330.7307">y costos</text></g><!--entity Estudiante--><g class="entity" data-qualified-name="Estudiante" data-source-line="24" id="ent0002"><ellipse cx="78.9756" cy="281.4494" fill="#ECFEFF" rx="8" ry="8" style="stroke:#0284C7;stroke-width:0.5;"/><path d="M78.9756,289.4494 L78.9756,316.4494 M65.9756,297.4494 L91.9756,297.4494 M78.9756,316.4494 L65.9756,331.4494 M78.9756,316.4494 L91.9756,331.4494" fill="none" style="stroke:#0284C7;stroke-width:0.5;"/><text fill="#0F172A" font-family="sans-serif" font-size="14" lengthAdjust="spacing" textLength="101.9512" x="28" y="347.4826">Estudiante EPIS</text></g><!--entity Docente--><g class="entity" data-qualified-name="Docente" data-source-line="25" id="ent0003"><ellipse cx="78.7686" cy="559.9494" fill="#ECFEFF" rx="8" ry="8" style="stroke:#0284C7;stroke-width:0.5;"/><path d="M78.7686,567.9494 L78.7686,594.9494 M65.7686,575.9494 L91.7686,575.9494 M78.7686,594.9494 L65.7686,609.9494 M78.7686,594.9494 L91.7686,609.9494" fill="none" style="stroke:#0284C7;stroke-width:0.5;"/><text fill="#0F172A" font-family="sans-serif" font-size="14" lengthAdjust="spacing" textLength="145.5371" x="6" y="625.9826">Docente / Responsable</text><text fill="#0F172A" font-family="sans-serif" font-size="14" lengthAdjust="spacing" textLength="67.7031" x="6" y="643.592">acad&#233;mico</text></g><!--entity Tecnico--><g class="entity" data-qualified-name="Tecnico" data-source-line="26" id="ent0004"><ellipse cx="281.9204" cy="108.4494" fill="#ECFEFF" rx="8" ry="8" style="stroke:#0284C7;stroke-width:0.5;"/><path d="M281.9204,116.4494 L281.9204,143.4494 M268.9204,124.4494 L294.9204,124.4494 M281.9204,143.4494 L268.9204,158.4494 M281.9204,143.4494 L294.9204,158.4494" fill="none" style="stroke:#0284C7;stroke-width:0.5;"/><text fill="#0F172A" font-family="sans-serif" font-size="14" lengthAdjust="spacing" textLength="91.8408" x="236" y="174.4826">Equipo t&#233;cnico</text></g><!--link Estudiante to UC_Login--><g class="link" data-entity-1="ent0002" data-entity-2="ent0006" data-link-type="dependency" data-source-line="40" id="lnk15"><path d="M104.2,351.0194 C124.26,380.6094 155.23,420.4094 191,445.9494 C205.14,456.0494 216.957,461.6251 232.757,466.9751" fill="none" id="Estudiante-to-UC_Login" style="stroke:#334155;stroke-width:1.8;"/><polygon fill="#334155" points="238.44,468.8994,231.1983,462.2242,233.7041,467.2958,228.6326,469.8016,238.44,468.8994" style="stroke:#334155;stroke-width:1.8;"/></g><!--link Estudiante to UC_Estudiantes--><g class="link" data-entity-1="ent0002" data-entity-2="ent0007" data-link-type="dependency" data-source-line="41" id="lnk16"><path d="M130.2,311.9494 C155.78,311.9494 181.22,311.9494 208.76,311.9494" fill="none" id="Estudiante-to-UC_Estudiantes" style="stroke:#334155;stroke-width:1.8;"/><polygon fill="#334155" points="214.76,311.9494,205.76,307.9494,209.76,311.9494,205.76,315.9494,214.76,311.9494" style="stroke:#334155;stroke-width:1.8;"/></g><!--link Estudiante to UC_Perfil--><g class="link" data-entity-1="ent0002" data-entity-2="ent0008" data-link-type="dependency" data-source-line="42" id="lnk17"><path d="M130.13,286.8594 C148.76,278.8194 170.39,270.9694 191,266.9494 C259.92,253.5094 282.55,244.2394 349,266.9494 C410.16,287.8494 409.2,321.6794 464,355.9494 C477.15,364.1794 486.6717,369.4199 500.4717,376.1799" fill="none" id="Estudiante-to-UC_Perfil" style="stroke:#334155;stroke-width:1.8;"/><polygon fill="#334155" points="505.86,378.8194,499.5373,371.268,501.3698,376.6198,496.018,378.4523,505.86,378.8194" style="stroke:#334155;stroke-width:1.8;"/></g><!--link Estudiante to UC_FiltroPerfil--><g class="link" data-entity-1="ent0002" data-entity-2="ent0009" data-link-type="dependency" data-source-line="43" id="lnk18"><path d="M130.2,334.4294 C163.69,349.4194 201.7445,366.456 233.4145,380.646" fill="none" id="Estudiante-to-UC_FiltroPerfil" style="stroke:#334155;stroke-width:1.8;"/><polygon fill="#334155" points="238.89,383.0994,232.3123,375.769,234.3271,381.0549,229.0412,383.0697,238.89,383.0994" style="stroke:#334155;stroke-width:1.8;"/></g><!--link Estudiante to UC_Graficos--><g class="link" data-entity-1="ent0002" data-entity-2="ent0012" data-link-type="dependency" data-source-line="44" id="lnk19"><path d="M86.02,272.5894 C96.6,218.7194 124.16,123.9094 191,81.9494 C250.47,44.6094 281.13,63.9194 349,81.9494 C553.2,136.1994 756.167,288.616 831.117,348.976" fill="none" id="Estudiante-to-UC_Graficos" style="stroke:#334155;stroke-width:1.8;"/><polygon fill="#334155" points="835.79,352.7394,831.2894,343.979,831.8958,349.6032,826.2716,350.2097,835.79,352.7394" style="stroke:#334155;stroke-width:1.8;"/></g><!--link Docente to UC_Login--><g class="link" data-entity-1="ent0003" data-entity-2="ent0006" data-link-type="dependency" data-source-line="46" id="lnk20"><path d="M134.42,551.4294 C151.74,537.8094 171.48,523.7494 191,512.9494 C206.73,504.2494 219.5175,498.9453 235.6275,493.4853" fill="none" id="Docente-to-UC_Login" style="stroke:#334155;stroke-width:1.8;"/><polygon fill="#334155" points="241.31,491.5594,231.5023,490.6599,236.5746,493.1643,234.0702,498.2366,241.31,491.5594" style="stroke:#334155;stroke-width:1.8;"/></g><!--link Docente to UC_Global--><g class="link" data-entity-1="ent0003" data-entity-2="ent0010" data-link-type="dependency" data-source-line="47" id="lnk21"><path d="M152.24,601.9294 C165.14,602.3594 178.47,602.7194 191,602.9494 C261.21,604.2194 279.32,611.6894 349,602.9494 C399.59,596.5994 449.8755,583.4618 490.3955,571.2418" fill="none" id="Docente-to-UC_Global" style="stroke:#334155;stroke-width:1.8;"/><polygon fill="#334155" points="496.14,569.5094,486.3684,568.2784,491.353,570.953,488.6783,575.9376,496.14,569.5094" style="stroke:#334155;stroke-width:1.8;"/></g><!--link Docente to UC_FiltroGlobal--><g class="link" data-entity-1="ent0003" data-entity-2="ent0011" data-link-type="dependency" data-source-line="48" id="lnk22"><path d="M152.28,584.2094 C176.59,579.2494 197.4209,574.9979 220.1809,570.3579" fill="none" id="Docente-to-UC_FiltroGlobal" style="stroke:#334155;stroke-width:1.8;"/><polygon fill="#334155" points="226.06,569.1594,216.4424,567.0378,221.1608,570.1582,218.0404,574.8766,226.06,569.1594" style="stroke:#334155;stroke-width:1.8;"/></g><!--link Docente to UC_Graficos--><g class="link" data-entity-1="ent0003" data-entity-2="ent0012" data-link-type="dependency" data-source-line="49" id="lnk23"><path d="M152,621.7494 C288.66,660.0794 586.87,719.2194 754,566.9494 C784.86,538.8394 763.97,514.5694 784,477.9494 C799.53,449.5494 819.1721,425.5782 836.9221,406.1582" fill="none" id="Docente-to-UC_Graficos" style="stroke:#334155;stroke-width:1.8;"/><polygon fill="#334155" points="840.97,401.7294,831.9456,405.6739,837.5967,405.42,837.8506,411.0712,840.97,401.7294" style="stroke:#334155;stroke-width:1.8;"/></g><!--link Tecnico to UC_Infra--><g class="link" data-entity-1="ent0004" data-entity-2="ent0014" data-link-type="dependency" data-source-line="51" id="lnk24"><path d="M328.21,154.2894 C359.27,165.8694 400.74,183.4194 434,204.9494 C471,228.9094 503.5146,260.0917 526.1546,283.7817" fill="none" id="Tecnico-to-UC_Infra" style="stroke:#334155;stroke-width:1.8;"/><polygon fill="#334155" points="530.3,288.1194,526.9737,278.8492,526.8455,284.5046,521.1901,284.3765,530.3,288.1194" style="stroke:#334155;stroke-width:1.8;"/></g><!--link UC_Perfil to UC_Token--><g class="link" data-entity-1="ent0008" data-entity-2="ent0013" data-link-type="dependency" data-source-line="53" id="lnk25"><path d="M577.46,424.5094 C599.64,447.0794 635.73,479.4494 674,495.9494 C708.27,510.7194 742.9321,517.045 777.9121,520.055" fill="none" id="UC_Perfil-to-UC_Token" style="stroke:#334155;stroke-width:1.8;stroke-dasharray:7,7;"/><polygon fill="#334155" points="783.89,520.5694,775.2661,515.8125,778.9084,520.1407,774.5802,523.7831,783.89,520.5694" style="stroke:#334155;stroke-width:1.8;"/><text fill="#000000" font-family="sans-serif" font-size="13" lengthAdjust="spacing" textLength="55.6563" x="686.5" y="492.4445">&#171;include&#187;</text></g><!--link UC_Global to UC_Token--><g class="link" data-entity-1="ent0010" data-entity-2="ent0013" data-link-type="dependency" data-source-line="54" id="lnk26"><path d="M636.2,557.8494 C672.42,559.4694 715.51,559.3894 754,553.9494 C772.37,551.3594 786.208,548.1666 803.728,542.9666" fill="none" id="UC_Global-to-UC_Token" style="stroke:#334155;stroke-width:1.8;stroke-dasharray:7,7;"/><polygon fill="#334155" points="809.48,541.2594,799.7139,539.9855,804.6867,542.6821,801.9902,547.6549,809.48,541.2594" style="stroke:#334155;stroke-width:1.8;"/><text fill="#000000" font-family="sans-serif" font-size="13" lengthAdjust="spacing" textLength="55.6563" x="686.5" y="550.4445">&#171;include&#187;</text></g><!--link UC_FiltroPerfil to UC_Perfil--><g class="link" data-entity-1="ent0009" data-entity-2="ent0008" data-link-type="dependency" data-source-line="55" id="lnk27"><path d="M342.25,401.5094 C379.12,401.2394 421.1302,400.9234 462.0202,400.6234" fill="none" id="UC_FiltroPerfil-to-UC_Perfil" style="stroke:#334155;stroke-width:1.8;stroke-dasharray:7,7;"/><polygon fill="#334155" points="468.02,400.5794,458.9909,396.6455,463.0201,400.6161,459.0496,404.6453,468.02,400.5794" style="stroke:#334155;stroke-width:1.8;"/><text fill="#000000" font-family="sans-serif" font-size="13" lengthAdjust="spacing" textLength="53.4917" x="380" y="397.4445">&#171;extend&#187;</text></g><!--link UC_FiltroGlobal to UC_Global--><g class="link" data-entity-1="ent0011" data-entity-2="ent0010" data-link-type="dependency" data-source-line="56" id="lnk28"><path d="M342.92,556.3994 C380.05,555.4294 422.292,554.3349 463.182,553.2749" fill="none" id="UC_FiltroGlobal-to-UC_Global" style="stroke:#334155;stroke-width:1.8;stroke-dasharray:7,7;"/><polygon fill="#334155" points="469.18,553.1194,460.0794,549.3539,464.1817,553.2489,460.2867,557.3513,469.18,553.1194" style="stroke:#334155;stroke-width:1.8;"/><text fill="#000000" font-family="sans-serif" font-size="13" lengthAdjust="spacing" textLength="53.4917" x="380" y="551.4445">&#171;extend&#187;</text></g><!--link UC_Perfil to UC_Graficos--><g class="link" data-entity-1="ent0008" data-entity-2="ent0012" data-link-type="dependency" data-source-line="57" id="lnk29"><path d="M637.67,393.8194 C684.3,390.3594 736.2164,386.5033 781.9064,383.1133" fill="none" id="UC_Perfil-to-UC_Graficos" style="stroke:#334155;stroke-width:1.8;stroke-dasharray:7,7;"/><polygon fill="#334155" points="787.89,382.6694,778.6187,379.3463,782.9037,383.0393,779.2106,387.3243,787.89,382.6694" style="stroke:#334155;stroke-width:1.8;"/><text fill="#000000" font-family="sans-serif" font-size="13" lengthAdjust="spacing" textLength="55.6563" x="686.5" y="382.4445">&#171;include&#187;</text></g><!--link UC_Global to UC_Graficos--><g class="link" data-entity-1="ent0010" data-entity-2="ent0012" data-link-type="dependency" data-source-line="58" id="lnk30"><path d="M588.53,527.9194 C612.05,512.0894 644.46,490.9494 674,473.9494 C722.68,445.9394 774.974,419.8323 814.124,400.9823" fill="none" id="UC_Global-to-UC_Graficos" style="stroke:#334155;stroke-width:1.8;stroke-dasharray:7,7;"/><polygon fill="#334155" points="819.53,398.3794,809.6857,398.6797,815.025,400.5485,813.1562,405.8877,819.53,398.3794" style="stroke:#334155;stroke-width:1.8;"/><text fill="#000000" font-family="sans-serif" font-size="13" lengthAdjust="spacing" textLength="55.6563" x="686.5" y="429.4445">&#171;include&#187;</text></g><!--link UC_Infra to UC_Graficos--><g class="link" data-entity-1="ent0014" data-entity-2="ent0012" data-link-type="dependency" data-source-line="59" id="lnk31"><path d="M627.29,327.8694 C678.91,338.5294 741.9539,351.5463 792.2839,361.9363" fill="none" id="UC_Infra-to-UC_Graficos" style="stroke:#334155;stroke-width:1.8;stroke-dasharray:7,7;"/><polygon fill="#334155" points="798.16,363.1494,790.1546,357.4124,793.2633,362.1385,788.5372,365.2472,798.16,363.1494" style="stroke:#334155;stroke-width:1.8;"/><text fill="#000000" font-family="sans-serif" font-size="13" lengthAdjust="spacing" textLength="78.7808" x="675" y="336.4445">&#171;documenta&#187;</text></g><?plantuml-src XLFDJjj04BxxAKRf6Te00LIXIC742Aa7L49FaQfXT-AiijbrTzUbjEh3zCYvZv0NwzZOZXs7SlFCV3_pimugQ88hXQd3DO8aYD5RNtpSUmi7CBszkOE9GVqKbF1Hf6aH85XmAbq6aCgH2CgQoA-KoP15m2zHsaTbKbYWzjIgP2XMcD9TU6BFWeWcrMt0n3dx65jj7RmxFZuPZaQxnTbIYPKXxs5uUDugeWXC-XK1NB99wcnkP2KqZPDfaXGLwoIvAllXwFmaFkDiOaseSydmx6WI_Mxfvfu4Udf5EKbE-yf7ezFZwUMRoity-xMJysIInBlQyUNLQ3fyHJjwMS9WwaCk5Pf0vVK6W1wskHfrPGKLaFVmcNncZSS7JNE30kNcUQs4BNaLgf7-bglCGjWy2rD3PbH-Hz5sea7trGpA4UjL3cuOhj219wysVqqfSXz__MHJPTguc9lATM2aLZxWtF2Zf6OEN_Ese_dzR8b--M3HoRd9o7dBRTNSMt8BfTkqHEdWc9IL5MRms8uaUCizDxmIPVlilQQfjWzRwdKPxRDymVtVii_-edoEMlraWVNcEJZ5wRaHra3gDdyMV9bcKzSEoxXDltKsK4hic8U2c3dr7RbvA1I2NL5pdraHT9pPLhAjCWk7V1YNYv0xljCJattO-juKWEA1jbxcmS5uU_H-ldtKVhLQVB_GkKk_t2mWgbz_fusTPBNhdMpd3hkCHh_wAUh2omQYfdKuF1mtEuMFS76XZD2vfF4uQfpV0BLdhQ5LL63fHo0Zsz2kQXNjGhjwzK1ljVWwhfnyBqnQaQzvUpWU_mC0?></g></svg>