<?plantuml 1.2026.2?><svg xmlns="http://www.w3.org/2000/svg" xmlns:xlink="http://www.w3.org/1999/xlink" contentStyleType="text/css" data-diagram-type="CLASS" height="858px" preserveAspectRatio="none" style="width:2284px;height:858px;background:#FFFFFF;" version="1.1" viewBox="0 0 2284 858" width="2284px" zoomAndPan="magnify"><title>Diagrama de Clases Conceptual - EPIS Analytics</title><defs/><g><g class="title" data-source-line="1"><text fill="#000000" font-family="sans-serif" font-size="14" font-weight="bold" lengthAdjust="spacing" textLength="323.668" x="973.416" y="24.5332">Diagrama de Clases Conceptual - EPIS Analytics</text></g><!--cluster Dominio--><g class="cluster" data-qualified-name="Dominio" data-source-line="25" id="ent0002"><path d="M1178,593.6094 L1234.9932,593.6094 A3.75,3.75 0 0 1 1237.4932,596.1094 L1244.4932,617.2188 L1755,617.2188 A2.5,2.5 0 0 1 1757.5,619.7188 L1757.5,849.1094 A2.5,2.5 0 0 1 1755,851.6094 L1178,851.6094 A2.5,2.5 0 0 1 1175.5,849.1094 L1175.5,596.1094 A2.5,2.5 0 0 1 1178,593.6094" fill="#F8FAFC" style="stroke:#CBD5E1;stroke-width:1.5;"/><line style="stroke:#CBD5E1;stroke-width:1.5;" x1="1175.5" x2="1244.4932" y1="617.2188" y2="617.2188"/><text fill="#0F172A" font-family="sans-serif" font-size="14" font-weight="bold" lengthAdjust="spacing" textLength="55.9932" x="1179.5" y="610.1426">Dominio</text></g><!--cluster Servicios--><g class="cluster" data-qualified-name="Servicios" data-source-line="55" id="ent0006"><path d="M1020,44.6094 L1083.2617,44.6094 A3.75,3.75 0 0 1 1085.7617,47.1094 L1092.7617,68.2188 L2275,68.2188 A2.5,2.5 0 0 1 2277.5,70.7188 L2277.5,336.1094 A2.5,2.5 0 0 1 2275,338.6094 L1020,338.6094 A2.5,2.5 0 0 1 1017.5,336.1094 L1017.5,47.1094 A2.5,2.5 0 0 1 1020,44.6094" fill="#F8FAFC" style="stroke:#CBD5E1;stroke-width:1.5;"/><line style="stroke:#CBD5E1;stroke-width:1.5;" x1="1017.5" x2="1092.7617" y1="68.2188" y2="68.2188"/><text fill="#0F172A" font-family="sans-serif" font-size="14" font-weight="bold" lengthAdjust="spacing" textLength="62.2617" x="1021.5" y="61.1426">Servicios</text></g><!--cluster Repositorios--><g class="cluster" data-qualified-name="Repositorios" data-source-line="92" id="ent0010"><path d="M207,53.6094 L293.5654,53.6094 A3.75,3.75 0 0 1 296.0654,56.1094 L303.0654,77.2188 L991,77.2188 A2.5,2.5 0 0 1 993.5,79.7188 L993.5,567.1094 A2.5,2.5 0 0 1 991,569.6094 L207,569.6094 A2.5,2.5 0 0 1 204.5,567.1094 L204.5,56.1094 A2.5,2.5 0 0 1 207,53.6094" fill="#F8FAFC" style="stroke:#CBD5E1;stroke-width:1.5;"/><line style="stroke:#CBD5E1;stroke-width:1.5;" x1="204.5" x2="303.0654" y1="77.2188" y2="77.2188"/><text fill="#0F172A" font-family="sans-serif" font-size="14" font-weight="bold" lengthAdjust="spacing" textLength="85.5654" x="208.5" y="70.1426">Repositorios</text></g><!--class Usuario--><g class="entity" data-qualified-name="Dominio.Usuario" data-source-line="26" id="ent0003"><rect fill="#FFFFFF" height="136.0469" rx="2.5" ry="2.5" style="stroke:#94A3B8;stroke-width:0.5;" width="141.5684" x="1191.5" y="664.6094"/><ellipse cx="1234.0972" cy="680.6094" fill="#ADD1B2" rx="11" ry="11" style="stroke:#181818;stroke-width:1;"/><path d="M1236.8628,676.4844 Q1237.0191,676.2656 1237.2066,676.1563 Q1237.3941,676.0469 1237.6128,676.0469 Q1237.9878,676.0469 1238.2222,676.3125 Q1238.4566,676.5625 1238.4566,677.1719 L1238.4566,678.625 Q1238.4566,679.2344 1238.2222,679.5 Q1237.9878,679.7656 1237.6128,679.7656 Q1237.2691,679.7656 1237.066,679.5625 Q1236.8628,679.375 1236.7535,678.8594 Q1236.7066,678.5 1236.5191,678.3125 Q1236.191,677.9375 1235.5816,677.7188 Q1234.9722,677.5 1234.3472,677.5 Q1233.5816,677.5 1232.941,677.8281 Q1232.316,678.1563 1231.816,678.9063 Q1231.3316,679.6563 1231.3316,680.6875 L1231.3316,681.7813 Q1231.3316,683.0156 1232.2222,683.8438 Q1233.1128,684.6563 1234.7066,684.6563 Q1235.6441,684.6563 1236.3003,684.4063 Q1236.691,684.25 1237.1128,683.8125 Q1237.3785,683.5469 1237.5191,683.4688 Q1237.6753,683.3906 1237.8785,683.3906 Q1238.2066,683.3906 1238.4566,683.6563 Q1238.7222,683.9063 1238.7222,684.25 Q1238.7222,684.5938 1238.3785,685 Q1237.8785,685.5781 1237.0816,685.9063 Q1236.0035,686.3594 1234.7066,686.3594 Q1233.191,686.3594 1231.9878,685.7344 Q1231.0035,685.2344 1230.316,684.1719 Q1229.6285,683.0938 1229.6285,681.8125 L1229.6285,680.6563 Q1229.6285,679.3281 1230.2378,678.1875 Q1230.8628,677.0313 1231.9566,676.4219 Q1233.0503,675.7969 1234.2847,675.7969 Q1235.0191,675.7969 1235.6597,675.9688 Q1236.316,676.125 1236.8628,676.4844 Z " fill="#000000"/><text fill="#0F172A" font-family="sans-serif" font-size="14" lengthAdjust="spacing" textLength="48.2412" x="1254.2299" y="686.3379">Usuario</text><line style="stroke:#94A3B8;stroke-width:0.5;" x1="1192.5" x2="1332.0684" y1="696.6094" y2="696.6094"/><text fill="#000000" font-family="sans-serif" font-size="14" lengthAdjust="spacing" textLength="86.5225" x="1197.5" y="715.1426">+id: int | None</text><text fill="#000000" font-family="sans-serif" font-size="14" lengthAdjust="spacing" textLength="96.1133" x="1197.5" y="732.752">+estudiante: str</text><text fill="#000000" font-family="sans-serif" font-size="14" lengthAdjust="spacing" textLength="93.7617" x="1197.5" y="750.3613">+username: str</text><text fill="#000000" font-family="sans-serif" font-size="14" lengthAdjust="spacing" textLength="129.5684" x="1197.5" y="767.9707">+password_hash: str</text><text fill="#000000" font-family="sans-serif" font-size="14" lengthAdjust="spacing" textLength="47.0654" x="1197.5" y="785.5801">+rol: str</text><line style="stroke:#94A3B8;stroke-width:0.5;" x1="1192.5" x2="1332.0684" y1="792.6563" y2="792.6563"/></g><!--class Publicacion--><g class="entity" data-qualified-name="Dominio.Publicacion" data-source-line="34" id="ent0004"><rect fill="#FFFFFF" height="206.4844" rx="2.5" ry="2.5" style="stroke:#94A3B8;stroke-width:0.5;" width="164.168" x="1368.5" y="629.6094"/><ellipse cx="1410.7558" cy="645.6094" fill="#ADD1B2" rx="11" ry="11" style="stroke:#181818;stroke-width:1;"/><path d="M1413.5214,641.4844 Q1413.6776,641.2656 1413.8651,641.1563 Q1414.0526,641.0469 1414.2714,641.0469 Q1414.6464,641.0469 1414.8808,641.3125 Q1415.1151,641.5625 1415.1151,642.1719 L1415.1151,643.625 Q1415.1151,644.2344 1414.8808,644.5 Q1414.6464,644.7656 1414.2714,644.7656 Q1413.9276,644.7656 1413.7245,644.5625 Q1413.5214,644.375 1413.412,643.8594 Q1413.3651,643.5 1413.1776,643.3125 Q1412.8495,642.9375 1412.2401,642.7188 Q1411.6308,642.5 1411.0058,642.5 Q1410.2401,642.5 1409.5995,642.8281 Q1408.9745,643.1563 1408.4745,643.9063 Q1407.9901,644.6563 1407.9901,645.6875 L1407.9901,646.7813 Q1407.9901,648.0156 1408.8808,648.8438 Q1409.7714,649.6563 1411.3651,649.6563 Q1412.3026,649.6563 1412.9589,649.4063 Q1413.3495,649.25 1413.7714,648.8125 Q1414.037,648.5469 1414.1776,648.4688 Q1414.3339,648.3906 1414.537,648.3906 Q1414.8651,648.3906 1415.1151,648.6563 Q1415.3808,648.9063 1415.3808,649.25 Q1415.3808,649.5938 1415.037,650 Q1414.537,650.5781 1413.7401,650.9063 Q1412.662,651.3594 1411.3651,651.3594 Q1409.8495,651.3594 1408.6464,650.7344 Q1407.662,650.2344 1406.9745,649.1719 Q1406.287,648.0938 1406.287,646.8125 L1406.287,645.6563 Q1406.287,644.3281 1406.8964,643.1875 Q1407.5214,642.0313 1408.6151,641.4219 Q1409.7089,640.7969 1410.9433,640.7969 Q1411.6776,640.7969 1412.3183,640.9688 Q1412.9745,641.125 1413.5214,641.4844 Z " fill="#000000"/><text fill="#0F172A" font-family="sans-serif" font-size="14" lengthAdjust="spacing" textLength="71.5996" x="1430.8126" y="651.3379">Publicacion</text><line style="stroke:#94A3B8;stroke-width:0.5;" x1="1369.5" x2="1531.668" y1="661.6094" y2="661.6094"/><text fill="#000000" font-family="sans-serif" font-size="14" lengthAdjust="spacing" textLength="86.5225" x="1374.5" y="680.1426">+id: int | None</text><text fill="#000000" font-family="sans-serif" font-size="14" lengthAdjust="spacing" textLength="96.1133" x="1374.5" y="697.752">+estudiante: str</text><text fill="#000000" font-family="sans-serif" font-size="14" lengthAdjust="spacing" textLength="59.5137" x="1374.5" y="715.3613">+ciclo: str</text><text fill="#000000" font-family="sans-serif" font-size="14" lengthAdjust="spacing" textLength="95.3203" x="1374.5" y="732.9707">+red_social: str</text><text fill="#000000" font-family="sans-serif" font-size="14" lengthAdjust="spacing" textLength="78.9688" x="1374.5" y="750.5801">+formato: str</text><text fill="#000000" font-family="sans-serif" font-size="14" lengthAdjust="spacing" textLength="77.4512" x="1374.5" y="768.1895">+fecha: date</text><text fill="#000000" font-family="sans-serif" font-size="14" lengthAdjust="spacing" textLength="78.9961" x="1374.5" y="785.7988">+alcance: int</text><text fill="#000000" font-family="sans-serif" font-size="14" lengthAdjust="spacing" textLength="113.2305" x="1374.5" y="803.4082">+interacciones: int</text><text fill="#000000" font-family="sans-serif" font-size="14" lengthAdjust="spacing" textLength="152.168" x="1374.5" y="821.0176">+engagement_rate: float</text><line style="stroke:#94A3B8;stroke-width:0.5;" x1="1369.5" x2="1531.668" y1="828.0938" y2="828.0938"/></g><!--class FiltrosDashboard--><g class="entity" data-qualified-name="Dominio.FiltrosDashboard" data-source-line="46" id="ent0005"><rect fill="#FFFFFF" height="136.0469" rx="2.5" ry="2.5" style="stroke:#94A3B8;stroke-width:0.5;" width="174.0254" x="1567.5" y="664.6094"/><ellipse cx="1598.4416" cy="680.6094" fill="#ADD1B2" rx="11" ry="11" style="stroke:#181818;stroke-width:1;"/><path d="M1601.2072,676.4844 Q1601.3635,676.2656 1601.551,676.1563 Q1601.7385,676.0469 1601.9572,676.0469 Q1602.3322,676.0469 1602.5666,676.3125 Q1602.801,676.5625 1602.801,677.1719 L1602.801,678.625 Q1602.801,679.2344 1602.5666,679.5 Q1602.3322,679.7656 1601.9572,679.7656 Q1601.6135,679.7656 1601.4104,679.5625 Q1601.2072,679.375 1601.0979,678.8594 Q1601.051,678.5 1600.8635,678.3125 Q1600.5354,677.9375 1599.926,677.7188 Q1599.3166,677.5 1598.6916,677.5 Q1597.926,677.5 1597.2854,677.8281 Q1596.6604,678.1563 1596.1604,678.9063 Q1595.676,679.6563 1595.676,680.6875 L1595.676,681.7813 Q1595.676,683.0156 1596.5666,683.8438 Q1597.4572,684.6563 1599.051,684.6563 Q1599.9885,684.6563 1600.6447,684.4063 Q1601.0354,684.25 1601.4572,683.8125 Q1601.7229,683.5469 1601.8635,683.4688 Q1602.0197,683.3906 1602.2229,683.3906 Q1602.551,683.3906 1602.801,683.6563 Q1603.0666,683.9063 1603.0666,684.25 Q1603.0666,684.5938 1602.7229,685 Q1602.2229,685.5781 1601.426,685.9063 Q1600.3479,686.3594 1599.051,686.3594 Q1597.5354,686.3594 1596.3322,685.7344 Q1595.3479,685.2344 1594.6604,684.1719 Q1593.9729,683.0938 1593.9729,681.8125 L1593.9729,680.6563 Q1593.9729,679.3281 1594.5822,678.1875 Q1595.2072,677.0313 1596.301,676.4219 Q1597.3947,675.7969 1598.6291,675.7969 Q1599.3635,675.7969 1600.0041,675.9688 Q1600.6604,676.125 1601.2072,676.4844 Z " fill="#000000"/><text fill="#0F172A" font-family="sans-serif" font-size="14" lengthAdjust="spacing" textLength="106.5996" x="1615.9842" y="686.3379">FiltrosDashboard</text><line style="stroke:#94A3B8;stroke-width:0.5;" x1="1568.5" x2="1740.5254" y1="696.6094" y2="696.6094"/><text fill="#000000" font-family="sans-serif" font-size="14" lengthAdjust="spacing" textLength="140.998" x="1573.5" y="715.1426">+estudiante: str | None</text><text fill="#000000" font-family="sans-serif" font-size="14" lengthAdjust="spacing" textLength="162.0254" x="1573.5" y="732.752">+fecha_inicio: date | None</text><text fill="#000000" font-family="sans-serif" font-size="14" lengthAdjust="spacing" textLength="144.9082" x="1573.5" y="750.3613">+fecha_fin: date | None</text><text fill="#000000" font-family="sans-serif" font-size="14" lengthAdjust="spacing" textLength="104.3984" x="1573.5" y="767.9707">+ciclo: str | None</text><text fill="#000000" font-family="sans-serif" font-size="14" lengthAdjust="spacing" textLength="140.2051" x="1573.5" y="785.5801">+red_social: str | None</text><line style="stroke:#94A3B8;stroke-width:0.5;" x1="1568.5" x2="1740.5254" y1="792.6563" y2="792.6563"/></g><!--class AuthService--><g class="entity" data-qualified-name="Servicios.AuthService" data-source-line="56" id="ent0007"><rect fill="#FFFFFF" height="241.7031" rx="2.5" ry="2.5" style="stroke:#94A3B8;stroke-width:0.5;" width="356.3125" x="1033.5" y="80.6094"/><ellipse cx="1169.665" cy="96.6094" fill="#ADD1B2" rx="11" ry="11" style="stroke:#181818;stroke-width:1;"/><path d="M1172.4307,92.4844 Q1172.5869,92.2656 1172.7744,92.1563 Q1172.9619,92.0469 1173.1807,92.0469 Q1173.5557,92.0469 1173.79,92.3125 Q1174.0244,92.5625 1174.0244,93.1719 L1174.0244,94.625 Q1174.0244,95.2344 1173.79,95.5 Q1173.5557,95.7656 1173.1807,95.7656 Q1172.8369,95.7656 1172.6338,95.5625 Q1172.4307,95.375 1172.3213,94.8594 Q1172.2744,94.5 1172.0869,94.3125 Q1171.7588,93.9375 1171.1494,93.7188 Q1170.54,93.5 1169.915,93.5 Q1169.1494,93.5 1168.5088,93.8281 Q1167.8838,94.1563 1167.3838,94.9063 Q1166.8994,95.6563 1166.8994,96.6875 L1166.8994,97.7813 Q1166.8994,99.0156 1167.79,99.8438 Q1168.6807,100.6563 1170.2744,100.6563 Q1171.2119,100.6563 1171.8682,100.4063 Q1172.2588,100.25 1172.6807,99.8125 Q1172.9463,99.5469 1173.0869,99.4688 Q1173.2432,99.3906 1173.4463,99.3906 Q1173.7744,99.3906 1174.0244,99.6563 Q1174.29,99.9063 1174.29,100.25 Q1174.29,100.5938 1173.9463,101 Q1173.4463,101.5781 1172.6494,101.9063 Q1171.5713,102.3594 1170.2744,102.3594 Q1168.7588,102.3594 1167.5557,101.7344 Q1166.5713,101.2344 1165.8838,100.1719 Q1165.1963,99.0938 1165.1963,97.8125 L1165.1963,96.6563 Q1165.1963,95.3281 1165.8057,94.1875 Q1166.4307,93.0313 1167.5244,92.4219 Q1168.6182,91.7969 1169.8525,91.7969 Q1170.5869,91.7969 1171.2275,91.9688 Q1171.8838,92.125 1172.4307,92.4844 Z " fill="#000000"/><text fill="#0F172A" font-family="sans-serif" font-size="14" lengthAdjust="spacing" textLength="75.4824" x="1190.165" y="102.3379">AuthService</text><line style="stroke:#94A3B8;stroke-width:0.5;" x1="1034.5" x2="1388.8125" y1="112.6094" y2="112.6094"/><text fill="#000000" font-family="sans-serif" font-size="14" lengthAdjust="spacing" textLength="184.7549" x="1039.5" y="131.1426">+DEFAULT_PASSWORD: str</text><text fill="#000000" font-family="sans-serif" font-size="14" lengthAdjust="spacing" textLength="188.665" x="1039.5" y="148.752">+TOKEN_TTL_SECONDS: int</text><text fill="#000000" font-family="sans-serif" font-size="14" lengthAdjust="spacing" textLength="290.2607" x="1039.5" y="166.3613">-publicacion_repository: PublicacionRepository</text><text fill="#000000" font-family="sans-serif" font-size="14" lengthAdjust="spacing" textLength="242.7715" x="1039.5" y="183.9707">-usuario_repository: UsuarioRepository</text><text fill="#000000" font-family="sans-serif" font-size="14" lengthAdjust="spacing" textLength="126.0615" x="1039.5" y="201.5801">-token_secret: bytes</text><line style="stroke:#94A3B8;stroke-width:0.5;" x1="1034.5" x2="1388.8125" y1="208.6563" y2="208.6563"/><text fill="#000000" font-family="sans-serif" font-size="14" lengthAdjust="spacing" textLength="178.5957" x="1039.5" y="227.1895">+ensure_demo_users(): void</text><text fill="#000000" font-family="sans-serif" font-size="14" lengthAdjust="spacing" textLength="253.2578" x="1039.5" y="244.7988">+login(username: str, password: str): dict</text><text fill="#000000" font-family="sans-serif" font-size="14" lengthAdjust="spacing" textLength="180.127" x="1039.5" y="262.4082">+verify_token(token: str): dict</text><text fill="#000000" font-family="sans-serif" font-size="14" lengthAdjust="spacing" textLength="223.7129" x="1039.5" y="280.0176">+create_token(usuario: Usuario): str</text><text fill="#000000" font-family="sans-serif" font-size="14" lengthAdjust="spacing" textLength="222.1406" x="1039.5" y="297.627">+hash_password(password: str): str</text><text fill="#000000" font-family="sans-serif" font-size="14" lengthAdjust="spacing" textLength="344.3125" x="1039.5" y="315.2363">+verify_password(password: str, stored_hash: str): bool</text></g><!--class AnalyticsService--><g class="entity" data-qualified-name="Servicios.AnalyticsService" data-source-line="70" id="ent0008"><rect fill="#FFFFFF" height="171.2656" rx="2.5" ry="2.5" style="stroke:#94A3B8;stroke-width:0.5;" width="545.709" x="1715.5" y="116.1094"/><ellipse cx="1932.7529" cy="132.1094" fill="#ADD1B2" rx="11" ry="11" style="stroke:#181818;stroke-width:1;"/><path d="M1935.5186,127.9844 Q1935.6748,127.7656 1935.8623,127.6563 Q1936.0498,127.5469 1936.2686,127.5469 Q1936.6436,127.5469 1936.8779,127.8125 Q1937.1123,128.0625 1937.1123,128.6719 L1937.1123,130.125 Q1937.1123,130.7344 1936.8779,131 Q1936.6436,131.2656 1936.2686,131.2656 Q1935.9248,131.2656 1935.7217,131.0625 Q1935.5186,130.875 1935.4092,130.3594 Q1935.3623,130 1935.1748,129.8125 Q1934.8467,129.4375 1934.2373,129.2188 Q1933.6279,129 1933.0029,129 Q1932.2373,129 1931.5967,129.3281 Q1930.9717,129.6563 1930.4717,130.4063 Q1929.9873,131.1563 1929.9873,132.1875 L1929.9873,133.2813 Q1929.9873,134.5156 1930.8779,135.3438 Q1931.7686,136.1563 1933.3623,136.1563 Q1934.2998,136.1563 1934.9561,135.9063 Q1935.3467,135.75 1935.7686,135.3125 Q1936.0342,135.0469 1936.1748,134.9688 Q1936.3311,134.8906 1936.5342,134.8906 Q1936.8623,134.8906 1937.1123,135.1563 Q1937.3779,135.4063 1937.3779,135.75 Q1937.3779,136.0938 1937.0342,136.5 Q1936.5342,137.0781 1935.7373,137.4063 Q1934.6592,137.8594 1933.3623,137.8594 Q1931.8467,137.8594 1930.6436,137.2344 Q1929.6592,136.7344 1928.9717,135.6719 Q1928.2842,134.5938 1928.2842,133.3125 L1928.2842,132.1563 Q1928.2842,130.8281 1928.8936,129.6875 Q1929.5186,128.5313 1930.6123,127.9219 Q1931.7061,127.2969 1932.9404,127.2969 Q1933.6748,127.2969 1934.3154,127.4688 Q1934.9717,127.625 1935.5186,127.9844 Z " fill="#000000"/><text fill="#0F172A" font-family="sans-serif" font-size="14" lengthAdjust="spacing" textLength="102.7031" x="1953.2529" y="137.8379">AnalyticsService</text><line style="stroke:#94A3B8;stroke-width:0.5;" x1="1716.5" x2="2260.209" y1="148.1094" y2="148.1094"/><text fill="#000000" font-family="sans-serif" font-size="14" lengthAdjust="spacing" textLength="134.1963" x="1721.5" y="166.6426">+CICLO_ORDER: list</text><text fill="#000000" font-family="sans-serif" font-size="14" lengthAdjust="spacing" textLength="212.4268" x="1721.5" y="184.252">-repository: PublicacionRepository</text><line style="stroke:#94A3B8;stroke-width:0.5;" x1="1716.5" x2="2260.209" y1="191.3281" y2="191.3281"/><text fill="#000000" font-family="sans-serif" font-size="14" lengthAdjust="spacing" textLength="427.3486" x="1721.5" y="209.8613">+get_metricas_estudiante(estudiante: str, red_social: str | None): dict</text><text fill="#000000" font-family="sans-serif" font-size="14" lengthAdjust="spacing" textLength="482.5898" x="1721.5" y="227.4707">+get_interacciones_tiempo(estudiante: str, red_social: str | None): DataFrame</text><text fill="#000000" font-family="sans-serif" font-size="14" lengthAdjust="spacing" textLength="533.709" x="1721.5" y="245.0801">+get_interacciones_por_red(estudiante: str | None, red_social: str | None): DataFrame</text><text fill="#000000" font-family="sans-serif" font-size="14" lengthAdjust="spacing" textLength="366.6455" x="1721.5" y="262.6895">+get_alcance_por_ciclo(red_social: str | None): DataFrame</text><text fill="#000000" font-family="sans-serif" font-size="14" lengthAdjust="spacing" textLength="414.8936" x="1721.5" y="280.2988">+get_top_engagement(limit: int, red_social: str | None): DataFrame</text></g><!--class GeneradorDatosService--><g class="entity" data-qualified-name="Servicios.GeneradorDatosService" data-source-line="80" id="ent0009"><rect fill="#FFFFFF" height="188.875" rx="2.5" ry="2.5" style="stroke:#94A3B8;stroke-width:0.5;" width="255.1885" x="1425" y="107.1094"/><ellipse cx="1473.2515" cy="123.1094" fill="#ADD1B2" rx="11" ry="11" style="stroke:#181818;stroke-width:1;"/><path d="M1476.0171,118.9844 Q1476.1733,118.7656 1476.3608,118.6563 Q1476.5483,118.5469 1476.7671,118.5469 Q1477.1421,118.5469 1477.3765,118.8125 Q1477.6108,119.0625 1477.6108,119.6719 L1477.6108,121.125 Q1477.6108,121.7344 1477.3765,122 Q1477.1421,122.2656 1476.7671,122.2656 Q1476.4233,122.2656 1476.2202,122.0625 Q1476.0171,121.875 1475.9077,121.3594 Q1475.8608,121 1475.6733,120.8125 Q1475.3452,120.4375 1474.7358,120.2188 Q1474.1265,120 1473.5015,120 Q1472.7358,120 1472.0952,120.3281 Q1471.4702,120.6563 1470.9702,121.4063 Q1470.4858,122.1563 1470.4858,123.1875 L1470.4858,124.2813 Q1470.4858,125.5156 1471.3765,126.3438 Q1472.2671,127.1563 1473.8608,127.1563 Q1474.7983,127.1563 1475.4546,126.9063 Q1475.8452,126.75 1476.2671,126.3125 Q1476.5327,126.0469 1476.6733,125.9688 Q1476.8296,125.8906 1477.0327,125.8906 Q1477.3608,125.8906 1477.6108,126.1563 Q1477.8765,126.4063 1477.8765,126.75 Q1477.8765,127.0938 1477.5327,127.5 Q1477.0327,128.0781 1476.2358,128.4063 Q1475.1577,128.8594 1473.8608,128.8594 Q1472.3452,128.8594 1471.1421,128.2344 Q1470.1577,127.7344 1469.4702,126.6719 Q1468.7827,125.5938 1468.7827,124.3125 L1468.7827,123.1563 Q1468.7827,121.8281 1469.3921,120.6875 Q1470.0171,119.5313 1471.1108,118.9219 Q1472.2046,118.2969 1473.439,118.2969 Q1474.1733,118.2969 1474.814,118.4688 Q1475.4702,118.625 1476.0171,118.9844 Z " fill="#000000"/><text fill="#0F172A" font-family="sans-serif" font-size="14" lengthAdjust="spacing" textLength="150.1855" x="1493.7515" y="128.8379">GeneradorDatosService</text><line style="stroke:#94A3B8;stroke-width:0.5;" x1="1426" x2="1679.1885" y1="139.1094" y2="139.1094"/><text fill="#000000" font-family="sans-serif" font-size="14" lengthAdjust="spacing" textLength="98.4375" x="1431" y="157.6426">+CICLOS: tuple</text><text fill="#000000" font-family="sans-serif" font-size="14" lengthAdjust="spacing" textLength="172.3613" x="1431" y="175.252">+REDES_SOCIALES: tuple</text><text fill="#000000" font-family="sans-serif" font-size="14" lengthAdjust="spacing" textLength="125.6445" x="1431" y="192.8613">+FORMATOS: tuple</text><text fill="#000000" font-family="sans-serif" font-size="14" lengthAdjust="spacing" textLength="212.4268" x="1431" y="210.4707">-repository: PublicacionRepository</text><text fill="#000000" font-family="sans-serif" font-size="14" lengthAdjust="spacing" textLength="115.9307" x="1431" y="228.0801">-num_registros: int</text><text fill="#000000" font-family="sans-serif" font-size="14" lengthAdjust="spacing" textLength="133.8682" x="1431" y="245.6895">-reference_date: date</text><line style="stroke:#94A3B8;stroke-width:0.5;" x1="1426" x2="1679.1885" y1="252.7656" y2="252.7656"/><text fill="#000000" font-family="sans-serif" font-size="14" lengthAdjust="spacing" textLength="166.9473" x="1431" y="271.2988">+ensure_seed_data(): void</text><text fill="#000000" font-family="sans-serif" font-size="14" lengthAdjust="spacing" textLength="243.1885" x="1431" y="288.9082">+generate_publicaciones(): DataFrame</text></g><!--class PublicacionRepository--><g class="entity" data-qualified-name="Repositorios.PublicacionRepository" data-source-line="93" id="ent0011"><rect fill="#FFFFFF" height="171.2656" rx="2.5" ry="2.5" style="stroke:#94A3B8;stroke-width:0.5;" width="312.7744" x="664" y="382.6094"/><ellipse cx="746.8789" cy="398.6094" fill="#B4A7E5" rx="11" ry="11" style="stroke:#181818;stroke-width:1;"/><path d="M747.832,395.25 L747.832,401.9063 L749.5508,401.9063 Q750.1602,401.9063 750.4258,402.1406 Q750.6914,402.375 750.6914,402.7656 Q750.6914,403.1406 750.4258,403.375 Q750.1602,403.6094 749.5508,403.6094 L744.4102,403.6094 Q743.8008,403.6094 743.5352,403.375 Q743.2695,403.1406 743.2695,402.75 Q743.2695,402.375 743.5352,402.1406 Q743.8008,401.9063 744.4102,401.9063 L746.1289,401.9063 L746.1289,395.25 L744.4102,395.25 Q743.8008,395.25 743.5352,395.0156 Q743.2695,394.7813 743.2695,394.3906 Q743.2695,394.0156 743.5352,393.7813 Q743.8008,393.5469 744.4102,393.5469 L749.5508,393.5469 Q750.1602,393.5469 750.4258,393.7813 Q750.6914,394.0156 750.6914,394.3906 Q750.6914,394.7813 750.4258,395.0156 Q750.1602,395.25 749.5508,395.25 L747.832,395.25 Z " fill="#000000"/><text fill="#0F172A" font-family="sans-serif" font-size="14" font-style="italic" lengthAdjust="spacing" textLength="138.5166" x="767.3789" y="404.3379">PublicacionRepository</text><line style="stroke:#94A3B8;stroke-width:0.5;" x1="665" x2="975.7744" y1="414.6094" y2="414.6094"/><line style="stroke:#94A3B8;stroke-width:0.5;" x1="665" x2="975.7744" y1="422.6094" y2="422.6094"/><text fill="#000000" font-family="sans-serif" font-size="14" lengthAdjust="spacing" textLength="152.9268" x="670" y="441.1426">+exists_database(): bool</text><text fill="#000000" font-family="sans-serif" font-size="14" lengthAdjust="spacing" textLength="166.1543" x="670" y="458.752">+initialize_database(): void</text><text fill="#000000" font-family="sans-serif" font-size="14" lengthAdjust="spacing" textLength="285.1885" x="670" y="476.3613">+save_many(publicaciones: DataFrame): void</text><text fill="#000000" font-family="sans-serif" font-size="14" lengthAdjust="spacing" textLength="103.0996" x="670" y="493.9707">+clear_all(): void</text><text fill="#000000" font-family="sans-serif" font-size="14" lengthAdjust="spacing" textLength="139.665" x="670" y="511.5801">+find_all(): DataFrame</text><text fill="#000000" font-family="sans-serif" font-size="14" lengthAdjust="spacing" textLength="300.7744" x="670" y="529.1895">+find_by_estudiante(estudiante: str): DataFrame</text><text fill="#000000" font-family="sans-serif" font-size="14" lengthAdjust="spacing" textLength="164.5752" x="670" y="546.7988">+get_estudiantes(): list[str]</text></g><!--class SQLitePublicacionRepository--><g class="entity" data-qualified-name="Repositorios.SQLitePublicacionRepository" data-source-line="103" id="ent0012"><rect fill="#FFFFFF" height="224.0938" rx="2.5" ry="2.5" style="stroke:#94A3B8;stroke-width:0.5;" width="371.9258" x="605.5" y="89.6094"/><ellipse cx="696.5547" cy="105.6094" fill="#ADD1B2" rx="11" ry="11" style="stroke:#181818;stroke-width:1;"/><path d="M699.3203,101.4844 Q699.4766,101.2656 699.6641,101.1563 Q699.8516,101.0469 700.0703,101.0469 Q700.4453,101.0469 700.6797,101.3125 Q700.9141,101.5625 700.9141,102.1719 L700.9141,103.625 Q700.9141,104.2344 700.6797,104.5 Q700.4453,104.7656 700.0703,104.7656 Q699.7266,104.7656 699.5234,104.5625 Q699.3203,104.375 699.2109,103.8594 Q699.1641,103.5 698.9766,103.3125 Q698.6484,102.9375 698.0391,102.7188 Q697.4297,102.5 696.8047,102.5 Q696.0391,102.5 695.3984,102.8281 Q694.7734,103.1563 694.2734,103.9063 Q693.7891,104.6563 693.7891,105.6875 L693.7891,106.7813 Q693.7891,108.0156 694.6797,108.8438 Q695.5703,109.6563 697.1641,109.6563 Q698.1016,109.6563 698.7578,109.4063 Q699.1484,109.25 699.5703,108.8125 Q699.8359,108.5469 699.9766,108.4688 Q700.1328,108.3906 700.3359,108.3906 Q700.6641,108.3906 700.9141,108.6563 Q701.1797,108.9063 701.1797,109.25 Q701.1797,109.5938 700.8359,110 Q700.3359,110.5781 699.5391,110.9063 Q698.4609,111.3594 697.1641,111.3594 Q695.6484,111.3594 694.4453,110.7344 Q693.4609,110.2344 692.7734,109.1719 Q692.0859,108.0938 692.0859,106.8125 L692.0859,105.6563 Q692.0859,104.3281 692.6953,103.1875 Q693.3203,102.0313 694.4141,101.4219 Q695.5078,100.7969 696.7422,100.7969 Q697.4766,100.7969 698.1172,100.9688 Q698.7734,101.125 699.3203,101.4844 Z " fill="#000000"/><text fill="#0F172A" font-family="sans-serif" font-size="14" lengthAdjust="spacing" textLength="181.3164" x="717.0547" y="111.3379">SQLitePublicacionRepository</text><line style="stroke:#94A3B8;stroke-width:0.5;" x1="606.5" x2="976.4258" y1="121.6094" y2="121.6094"/><text fill="#000000" font-family="sans-serif" font-size="14" lengthAdjust="spacing" textLength="91.8477" x="611.5" y="140.1426">-db_path: Path</text><text fill="#000000" font-family="sans-serif" font-size="14" lengthAdjust="spacing" textLength="101.1582" x="611.5" y="157.752">-table_name: str</text><line style="stroke:#94A3B8;stroke-width:0.5;" x1="606.5" x2="976.4258" y1="164.8281" y2="164.8281"/><text fill="#000000" font-family="sans-serif" font-size="14" lengthAdjust="spacing" textLength="359.9258" x="611.5" y="183.3613">+get_instance(db_path: str): SQLitePublicacionRepository</text><text fill="#000000" font-family="sans-serif" font-size="14" lengthAdjust="spacing" textLength="152.9268" x="611.5" y="200.9707">+exists_database(): bool</text><text fill="#000000" font-family="sans-serif" font-size="14" lengthAdjust="spacing" textLength="166.1543" x="611.5" y="218.5801">+initialize_database(): void</text><text fill="#000000" font-family="sans-serif" font-size="14" lengthAdjust="spacing" textLength="285.1885" x="611.5" y="236.1895">+save_many(publicaciones: DataFrame): void</text><text fill="#000000" font-family="sans-serif" font-size="14" lengthAdjust="spacing" textLength="103.0996" x="611.5" y="253.7988">+clear_all(): void</text><text fill="#000000" font-family="sans-serif" font-size="14" lengthAdjust="spacing" textLength="139.665" x="611.5" y="271.4082">+find_all(): DataFrame</text><text fill="#000000" font-family="sans-serif" font-size="14" lengthAdjust="spacing" textLength="300.7744" x="611.5" y="289.0176">+find_by_estudiante(estudiante: str): DataFrame</text><text fill="#000000" font-family="sans-serif" font-size="14" lengthAdjust="spacing" textLength="164.5752" x="611.5" y="306.627">+get_estudiantes(): list[str]</text></g><!--class UsuarioRepository--><g class="entity" data-qualified-name="Repositorios.UsuarioRepository" data-source-line="116" id="ent0013"><rect fill="#FFFFFF" height="136.0469" rx="2.5" ry="2.5" style="stroke:#94A3B8;stroke-width:0.5;" width="331.1768" x="298" y="400.1094"/><ellipse cx="401.7593" cy="416.1094" fill="#B4A7E5" rx="11" ry="11" style="stroke:#181818;stroke-width:1;"/><path d="M402.7124,412.75 L402.7124,419.4063 L404.4312,419.4063 Q405.0405,419.4063 405.3062,419.6406 Q405.5718,419.875 405.5718,420.2656 Q405.5718,420.6406 405.3062,420.875 Q405.0405,421.1094 404.4312,421.1094 L399.2905,421.1094 Q398.6812,421.1094 398.4155,420.875 Q398.1499,420.6406 398.1499,420.25 Q398.1499,419.875 398.4155,419.6406 Q398.6812,419.4063 399.2905,419.4063 L401.0093,419.4063 L401.0093,412.75 L399.2905,412.75 Q398.6812,412.75 398.4155,412.5156 Q398.1499,412.2813 398.1499,411.8906 Q398.1499,411.5156 398.4155,411.2813 Q398.6812,411.0469 399.2905,411.0469 L404.4312,411.0469 Q405.0405,411.0469 405.3062,411.2813 Q405.5718,411.5156 405.5718,411.8906 Q405.5718,412.2813 405.3062,412.5156 Q405.0405,412.75 404.4312,412.75 L402.7124,412.75 Z " fill="#000000"/><text fill="#0F172A" font-family="sans-serif" font-size="14" font-style="italic" lengthAdjust="spacing" textLength="115.1582" x="422.2593" y="421.8379">UsuarioRepository</text><line style="stroke:#94A3B8;stroke-width:0.5;" x1="299" x2="628.1768" y1="432.1094" y2="432.1094"/><line style="stroke:#94A3B8;stroke-width:0.5;" x1="299" x2="628.1768" y1="440.1094" y2="440.1094"/><text fill="#000000" font-family="sans-serif" font-size="14" lengthAdjust="spacing" textLength="166.1543" x="304" y="458.6426">+initialize_database(): void</text><text fill="#000000" font-family="sans-serif" font-size="14" lengthAdjust="spacing" textLength="116.334" x="304" y="476.252">+count_users(): int</text><text fill="#000000" font-family="sans-serif" font-size="14" lengthAdjust="spacing" textLength="256.3818" x="304" y="493.8613">+save_many(usuarios: list[Usuario]): void</text><text fill="#000000" font-family="sans-serif" font-size="14" lengthAdjust="spacing" textLength="319.1768" x="304" y="511.4707">+find_by_username(username: str): Usuario | None</text><text fill="#000000" font-family="sans-serif" font-size="14" lengthAdjust="spacing" textLength="162.2236" x="304" y="529.0801">+get_usernames(): list[str]</text></g><!--class SQLiteUsuarioRepository--><g class="entity" data-qualified-name="Repositorios.SQLiteUsuarioRepository" data-source-line="124" id="ent0014"><rect fill="#FFFFFF" height="188.875" rx="2.5" ry="2.5" style="stroke:#94A3B8;stroke-width:0.5;" width="348.5674" x="221" y="107.1094"/><ellipse cx="312.0547" cy="123.1094" fill="#ADD1B2" rx="11" ry="11" style="stroke:#181818;stroke-width:1;"/><path d="M314.8203,118.9844 Q314.9766,118.7656 315.1641,118.6563 Q315.3516,118.5469 315.5703,118.5469 Q315.9453,118.5469 316.1797,118.8125 Q316.4141,119.0625 316.4141,119.6719 L316.4141,121.125 Q316.4141,121.7344 316.1797,122 Q315.9453,122.2656 315.5703,122.2656 Q315.2266,122.2656 315.0234,122.0625 Q314.8203,121.875 314.7109,121.3594 Q314.6641,121 314.4766,120.8125 Q314.1484,120.4375 313.5391,120.2188 Q312.9297,120 312.3047,120 Q311.5391,120 310.8984,120.3281 Q310.2734,120.6563 309.7734,121.4063 Q309.2891,122.1563 309.2891,123.1875 L309.2891,124.2813 Q309.2891,125.5156 310.1797,126.3438 Q311.0703,127.1563 312.6641,127.1563 Q313.6016,127.1563 314.2578,126.9063 Q314.6484,126.75 315.0703,126.3125 Q315.3359,126.0469 315.4766,125.9688 Q315.6328,125.8906 315.8359,125.8906 Q316.1641,125.8906 316.4141,126.1563 Q316.6797,126.4063 316.6797,126.75 Q316.6797,127.0938 316.3359,127.5 Q315.8359,128.0781 315.0391,128.4063 Q313.9609,128.8594 312.6641,128.8594 Q311.1484,128.8594 309.9453,128.2344 Q308.9609,127.7344 308.2734,126.6719 Q307.5859,125.5938 307.5859,124.3125 L307.5859,123.1563 Q307.5859,121.8281 308.1953,120.6875 Q308.8203,119.5313 309.9141,118.9219 Q311.0078,118.2969 312.2422,118.2969 Q312.9766,118.2969 313.6172,118.4688 Q314.2734,118.625 314.8203,118.9844 Z " fill="#000000"/><text fill="#0F172A" font-family="sans-serif" font-size="14" lengthAdjust="spacing" textLength="157.958" x="332.5547" y="128.8379">SQLiteUsuarioRepository</text><line style="stroke:#94A3B8;stroke-width:0.5;" x1="222" x2="568.5674" y1="139.1094" y2="139.1094"/><text fill="#000000" font-family="sans-serif" font-size="14" lengthAdjust="spacing" textLength="91.8477" x="227" y="157.6426">-db_path: Path</text><text fill="#000000" font-family="sans-serif" font-size="14" lengthAdjust="spacing" textLength="101.1582" x="227" y="175.252">-table_name: str</text><line style="stroke:#94A3B8;stroke-width:0.5;" x1="222" x2="568.5674" y1="182.3281" y2="182.3281"/><text fill="#000000" font-family="sans-serif" font-size="14" lengthAdjust="spacing" textLength="336.5674" x="227" y="200.8613">+get_instance(db_path: str): SQLiteUsuarioRepository</text><text fill="#000000" font-family="sans-serif" font-size="14" lengthAdjust="spacing" textLength="166.1543" x="227" y="218.4707">+initialize_database(): void</text><text fill="#000000" font-family="sans-serif" font-size="14" lengthAdjust="spacing" textLength="116.334" x="227" y="236.0801">+count_users(): int</text><text fill="#000000" font-family="sans-serif" font-size="14" lengthAdjust="spacing" textLength="256.3818" x="227" y="253.6895">+save_many(usuarios: list[Usuario]): void</text><text fill="#000000" font-family="sans-serif" font-size="14" lengthAdjust="spacing" textLength="319.1768" x="227" y="271.2988">+find_by_username(username: str): Usuario | None</text><text fill="#000000" font-family="sans-serif" font-size="14" lengthAdjust="spacing" textLength="162.2236" x="227" y="288.9082">+get_usernames(): list[str]</text></g><!--class SQLiteDB--><g class="entity" data-qualified-name="SQLiteDB" data-source-line="136" id="ent0015"><rect fill="#FFFFFF" height="76.3125" rx="2.5" ry="2.5" style="stroke:#94A3B8;stroke-width:0.5;" width="181.4199" x="7" y="430.1094"/><ellipse cx="22" cy="460.2656" fill="#ADD1B2" rx="11" ry="11" style="stroke:#181818;stroke-width:1;"/><path d="M24.7656,456.1406 Q24.9219,455.9219 25.1094,455.8125 Q25.2969,455.7031 25.5156,455.7031 Q25.8906,455.7031 26.125,455.9688 Q26.3594,456.2188 26.3594,456.8281 L26.3594,458.2813 Q26.3594,458.8906 26.125,459.1563 Q25.8906,459.4219 25.5156,459.4219 Q25.1719,459.4219 24.9688,459.2188 Q24.7656,459.0313 24.6563,458.5156 Q24.6094,458.1563 24.4219,457.9688 Q24.0938,457.5938 23.4844,457.375 Q22.875,457.1563 22.25,457.1563 Q21.4844,457.1563 20.8438,457.4844 Q20.2188,457.8125 19.7188,458.5625 Q19.2344,459.3125 19.2344,460.3438 L19.2344,461.4375 Q19.2344,462.6719 20.125,463.5 Q21.0156,464.3125 22.6094,464.3125 Q23.5469,464.3125 24.2031,464.0625 Q24.5938,463.9063 25.0156,463.4688 Q25.2813,463.2031 25.4219,463.125 Q25.5781,463.0469 25.7813,463.0469 Q26.1094,463.0469 26.3594,463.3125 Q26.625,463.5625 26.625,463.9063 Q26.625,464.25 26.2813,464.6563 Q25.7813,465.2344 24.9844,465.5625 Q23.9063,466.0156 22.6094,466.0156 Q21.0938,466.0156 19.8906,465.3906 Q18.9063,464.8906 18.2188,463.8281 Q17.5313,462.75 17.5313,461.4688 L17.5313,460.3125 Q17.5313,458.9844 18.1406,457.8438 Q18.7656,456.6875 19.8594,456.0781 Q20.9531,455.4531 22.1875,455.4531 Q22.9219,455.4531 23.5625,455.625 Q24.2188,455.7813 24.7656,456.1406 Z " fill="#000000"/><text fill="#000000" font-family="sans-serif" font-size="12" font-style="italic" lengthAdjust="spacing" textLength="62.7246" x="79.3477" y="447.5664">&#171;database&#187;</text><text fill="#0F172A" font-family="sans-serif" font-size="14" lengthAdjust="spacing" textLength="42.7998" x="89.3101" y="464.7363">SQLite</text><text fill="#0F172A" font-family="sans-serif" font-size="14" lengthAdjust="spacing" textLength="149.4199" x="36" y="482.3457">usuarios / publicaciones</text><line style="stroke:#94A3B8;stroke-width:0.5;" x1="8" x2="187.4199" y1="490.4219" y2="490.4219"/><line style="stroke:#94A3B8;stroke-width:0.5;" x1="8" x2="187.4199" y1="498.4219" y2="498.4219"/></g><!--link SQLitePublicacionRepository to PublicacionRepository--><g class="link" data-entity-1="ent0012" data-entity-2="ent0011" data-link-type="extension" data-source-line="138" id="lnk16"><path codeLine="138" d="M768.33,313.8594 C768.33,336.7594 768.33,342.5094 768.33,364.3094" fill="none" id="SQLitePublicacionRepository-to-PublicacionRepository" style="stroke:#334155;stroke-width:1.6;stroke-dasharray:7,7;"/><polygon fill="none" points="768.33,382.3094,774.33,364.3094,762.33,364.3094,768.33,382.3094" style="stroke:#334155;stroke-width:1.6;"/></g><!--link SQLiteUsuarioRepository to UsuarioRepository--><g class="link" data-entity-1="ent0014" data-entity-2="ent0013" data-link-type="extension" data-source-line="139" id="lnk17"><path codeLine="139" d="M434,296.3194 C434,330.5794 434,350.5594 434,382.0794" fill="none" id="SQLiteUsuarioRepository-to-UsuarioRepository" style="stroke:#334155;stroke-width:1.6;stroke-dasharray:7,7;"/><polygon fill="none" points="434,400.0794,440,382.0794,428,382.0794,434,400.0794" style="stroke:#334155;stroke-width:1.6;"/></g><!--link AuthService to UsuarioRepository--><g class="link" data-entity-1="ent0007" data-entity-2="ent0013" data-link-type="dependency" data-source-line="141" id="lnk18"><path codeLine="141" d="M1033.21,316.6094 C858.17,316.6094 617.25,316.6094 617.25,316.6094 C617.25,316.6094 617.25,353.6794 617.25,393.8894" fill="none" id="AuthService-to-UsuarioRepository" style="stroke:#334155;stroke-width:1.6;"/><polygon fill="#334155" points="617.25,399.8894,621.25,390.8894,617.25,394.8894,613.25,390.8894,617.25,399.8894" style="stroke:#334155;stroke-width:1.6;"/><text fill="#000000" font-family="sans-serif" font-size="13" lengthAdjust="spacing" textLength="77.3335" x="705.59" y="331.1045">autentica con</text></g><!--link AuthService to PublicacionRepository--><g class="link" data-entity-1="ent0007" data-entity-2="ent0011" data-link-type="dependency" data-source-line="142" id="lnk19"><path codeLine="142" d="M1033.15,319.6094 C951.52,319.6094 872.67,319.6094 872.67,319.6094 C872.67,319.6094 872.67,343.5794 872.67,376.5894" fill="none" id="AuthService-to-PublicacionRepository" style="stroke:#334155;stroke-width:1.6;"/><polygon fill="#334155" points="872.67,382.5894,876.67,373.5894,872.67,377.5894,868.67,373.5894,872.67,382.5894" style="stroke:#334155;stroke-width:1.6;"/><text fill="#000000" font-family="sans-serif" font-size="13" lengthAdjust="spacing" textLength="153.2007" x="767.42" y="334.1045">crea usuarios demo desde</text></g><!--link AuthService to Usuario--><g class="link" data-entity-1="ent0007" data-entity-2="ent0003" data-link-type="dependency" data-source-line="143" id="lnk20"><path codeLine="143" d="M1262.5,322.7694 C1262.5,428.5194 1262.5,572.1794 1262.5,658.3294" fill="none" id="AuthService-to-Usuario" style="stroke:#334155;stroke-width:1.6;stroke-dasharray:7,7;"/><polygon fill="#334155" points="1262.5,664.3294,1266.5,655.3294,1262.5,659.3294,1258.5,655.3294,1262.5,664.3294" style="stroke:#334155;stroke-width:1.6;"/><text fill="#000000" font-family="sans-serif" font-size="13" lengthAdjust="spacing" textLength="105.5234" x="1156.5" y="490.0445">genera token para</text></g><!--link AnalyticsService to PublicacionRepository--><g class="link" data-entity-1="ent0008" data-entity-2="ent0011" data-link-type="dependency" data-source-line="145" id="lnk21"><path codeLine="145" d="M1722,287.1894 C1722,365.2894 1722,468.6094 1722,468.6094 C1722,468.6094 1241.17,468.6094 983.01,468.6094" fill="none" id="AnalyticsService-to-PublicacionRepository" style="stroke:#334155;stroke-width:1.6;"/><polygon fill="#334155" points="977.01,468.6094,986.01,472.6094,982.01,468.6094,986.01,464.6094,977.01,468.6094" style="stroke:#334155;stroke-width:1.6;"/><text fill="#000000" font-family="sans-serif" font-size="13" lengthAdjust="spacing" textLength="130.8062" x="1309.22" y="465.1045">consulta publicaciones</text></g><!--link AnalyticsService to FiltrosDashboard--><g class="link" data-entity-1="ent0008" data-entity-2="ent0005" data-link-type="dependency" data-source-line="146" id="lnk22"><path codeLine="146" d="M1735,287.2194 C1735,392.2394 1735,562.1494 1735,658.4694" fill="none" id="AnalyticsService-to-FiltrosDashboard" style="stroke:#334155;stroke-width:1.6;stroke-dasharray:7,7;"/><polygon fill="#334155" points="1735,664.4694,1739,655.4694,1735,659.4694,1731,655.4694,1735,664.4694" style="stroke:#334155;stroke-width:1.6;"/><text fill="#000000" font-family="sans-serif" font-size="13" lengthAdjust="spacing" textLength="68.6372" x="1666" y="472.3345">aplica filtros</text></g><!--link AnalyticsService to Publicacion--><g class="link" data-entity-1="ent0008" data-entity-2="ent0004" data-link-type="dependency" data-source-line="147" id="lnk23"><path codeLine="147" d="M1728.5,287.3394 C1728.5,416.8894 1728.5,647.6094 1728.5,647.6094 C1728.5,647.6094 1620.76,647.6094 1538.78,647.6094" fill="none" id="AnalyticsService-to-Publicacion" style="stroke:#334155;stroke-width:1.6;stroke-dasharray:7,7;"/><polygon fill="#334155" points="1532.78,647.6094,1541.78,651.6094,1537.78,647.6094,1541.78,643.6094,1532.78,647.6094" style="stroke:#334155;stroke-width:1.6;"/><text fill="#000000" font-family="sans-serif" font-size="13" lengthAdjust="spacing" textLength="132.228" x="1595.5" y="561.8245">calcula metricas desde</text></g><!--link GeneradorDatosService to PublicacionRepository--><g class="link" data-entity-1="ent0009" data-entity-2="ent0011" data-link-type="dependency" data-source-line="149" id="lnk24"><path codeLine="149" d="M1460.83,296.2794 C1460.83,357.4194 1460.83,425.6094 1460.83,425.6094 C1460.83,425.6094 1172.71,425.6094 983.14,425.6094" fill="none" id="GeneradorDatosService-to-PublicacionRepository" style="stroke:#334155;stroke-width:1.6;"/><polygon fill="#334155" points="977.14,425.6094,986.14,429.6094,982.14,425.6094,986.14,421.6094,977.14,425.6094" style="stroke:#334155;stroke-width:1.6;"/><text fill="#000000" font-family="sans-serif" font-size="13" lengthAdjust="spacing" textLength="81.6499" x="1201.65" y="422.1045">siembra datos</text></g><!--link GeneradorDatosService to Publicacion--><g class="link" data-entity-1="ent0009" data-entity-2="ent0004" data-link-type="dependency" data-source-line="150" id="lnk25"><path codeLine="150" d="M1496.67,296.2394 C1496.67,389.8594 1496.67,526.7794 1496.67,623.3094" fill="none" id="GeneradorDatosService-to-Publicacion" style="stroke:#334155;stroke-width:1.6;stroke-dasharray:7,7;"/><polygon fill="#334155" points="1496.67,629.3094,1500.67,620.3094,1496.67,624.3094,1492.67,620.3094,1496.67,629.3094" style="stroke:#334155;stroke-width:1.6;"/><text fill="#000000" font-family="sans-serif" font-size="13" lengthAdjust="spacing" textLength="93.939" x="1497.67" y="459.2645">genera registros</text></g><!--link UsuarioRepository to Usuario--><g class="link" data-entity-1="ent0013" data-entity-2="ent0003" data-link-type="dependency" data-source-line="152" id="lnk26"><path codeLine="152" d="M463.5,536.2294 C463.5,614.5894 463.5,732.6094 463.5,732.6094 C463.5,732.6094 989.41,732.6094 1185.24,732.6094" fill="none" id="UsuarioRepository-to-Usuario" style="stroke:#334155;stroke-width:1.6;stroke-dasharray:7,7;"/><polygon fill="#334155" points="1191.24,732.6094,1182.24,728.6094,1186.24,732.6094,1182.24,736.6094,1191.24,732.6094" style="stroke:#334155;stroke-width:1.6;"/><text fill="#000000" font-family="sans-serif" font-size="13" lengthAdjust="spacing" textLength="100.439" x="628.18" y="729.1045">persiste/recupera</text></g><!--link PublicacionRepository to Publicacion--><g class="link" data-entity-1="ent0011" data-entity-2="ent0004" data-link-type="dependency" data-source-line="153" id="lnk27"><path codeLine="153" d="M977.19,511.6094 C1142.4,511.6094 1379,511.6094 1379,511.6094 C1379,511.6094 1379,565.9394 1379,623.5494" fill="none" id="PublicacionRepository-to-Publicacion" style="stroke:#334155;stroke-width:1.6;stroke-dasharray:7,7;"/><polygon fill="#334155" points="1379,629.5494,1383,620.5494,1379,624.5494,1375,620.5494,1379,629.5494" style="stroke:#334155;stroke-width:1.6;"/><text fill="#000000" font-family="sans-serif" font-size="13" lengthAdjust="spacing" textLength="78.0635" x="1158.06" y="508.1045">expone datos</text></g><!--link SQLitePublicacionRepository to SQLiteDB--><g class="link" data-entity-1="ent0012" data-entity-2="ent0015" data-link-type="dependency" data-source-line="155" id="lnk28"><path codeLine="155" d="M605.06,305.6094 C399.5,305.6094 97.5,305.6094 97.5,305.6094 C97.5,305.6094 97.5,375.9794 97.5,424.0094" fill="none" id="SQLitePublicacionRepository-to-SQLiteDB" style="stroke:#334155;stroke-width:1.6;"/><polygon fill="#334155" points="97.5,430.0094,101.5,421.0094,97.5,425.0094,93.5,421.0094,97.5,430.0094" style="stroke:#334155;stroke-width:1.6;"/><text fill="#000000" font-family="sans-serif" font-size="13" lengthAdjust="spacing" textLength="110.5762" x="178.08" y="320.1045">tabla publicaciones</text></g><!--link SQLiteUsuarioRepository to SQLiteDB--><g class="link" data-entity-1="ent0014" data-entity-2="ent0015" data-link-type="dependency" data-source-line="156" id="lnk29"><path codeLine="156" d="M259.5,296.1194 C259.5,372.9294 259.5,468.6094 259.5,468.6094 C259.5,468.6094 231.37,468.6094 194.44,468.6094" fill="none" id="SQLiteUsuarioRepository-to-SQLiteDB" style="stroke:#334155;stroke-width:1.6;"/><polygon fill="#334155" points="188.44,468.6094,197.44,472.6094,193.44,468.6094,197.44,464.6094,188.44,468.6094" style="stroke:#334155;stroke-width:1.6;"/><text fill="#000000" font-family="sans-serif" font-size="13" lengthAdjust="spacing" textLength="80.939" x="178.5" y="414.3845">tabla usuarios</text></g><?plantuml-src vLTBRzj64BxpLopS2urOJXp7RYe41cH9B8ogbcigwA4DY2KvaXPUxHAxIpjga__UuPjBKR8Dz59K1m6QcPtdDmyPPZYG2QChHJUKn436d6hGP2n518b9AIS3ChsxySb8KBurBDAEen-OI2Y-87fDO_d4n8eiATVGuaIeHu-CKInC3Tn4KlZiBo3lMYAS2J3R18XKPYrRZ95IycaikLJaX_Fp3sSN5rtcOisY1m5QaxFJowvLyhT3o3MD7bPAfY8k5Ndv9-D85OCggJzz69rVVqIg9uKfQU-yin_VZvplBRrC651B6a6_xgddNUxgVdznUJwzVbPtWjheQezcxwCtyiPTpUFhoSNqh5TpGVFD5kiQIXwZAQUoS3IH6oQOFCfj5Rdwh5EgcCmfXBnXyJ0BbdmZjr90GGDjqfXHJC6GQACAOgf12RffanBKzuHk1ckgroswahpwXSvKXk_IaBE8HaoALnkFMCHbsmB4WPOHexn5N4greQOjjeHeJOSafgPKJdb44UUvrTA5hD0qohm2tQA3M646Do1Ce6Zcov9BQko8FCQDadg2qOUIghWAgnE25LxkKe15GOk5Ppti9HCzl2O95hcJYuRttOA23-enCwhRO1YbPbqme79-ClL6dsUBu6xa-x_FxoUjT2xclqnlWyLY5lZJyVnsuZVv6YHDTGC5YTJCIBKTjgj-NvEB9sc1H4kyH6TNrCW74866I84Pad1hG5Tbqgc288QD33A4QlTuI1ubYmisboicN0kw9wI2RVuJnMCMbKL_1CMMso2tvkRVkpBe0XQcb2b3gFq-RcKhQugWikLsZTPYfSr-mHFyabc1wmx3fw6Kt0PYFQexjHpVZ6Vp08iulH_YzDLbhLvMdpShCC46SA17L0SDfjqEl4z8FmAjh6Mwh5OB38DD8b-XR48DzN1-mZwDYLI8fTZjRx_NQIu7HQupxpltDQ-DJ89cWBYSRPZ9U-M5JhHA-pC8336M2lcojxxOXIPDU6d-VZgP-e4_7z-CPbERvStlVnqjRFaNOc4WqWtcTeKGme7NQdi5Ir2GPIhEfsGpQilEr8018vNQZRdAmy8-QiqDo9lNpaDxWjK-rKEisTAzhjVp-2lwhNClGZnstAQ7yWN035O3RnLBe75LqqS8DbHiNSlNbgUMUCI1AiGFjxNWI8yhQWSnEIlS7cYnVfGrGddYilx-0uM_s03oVvin0uVoCuX373y6vyiTVfS3buOSWiw-BrfEcwmptFfHuTy1C__h8ZGGtLbjzHNqNF0HteUcMM_rZT8afTn3kdIWDFLbDtYCiDg6zbeyhdUOTLna8LPopwDiNuZ_8iBw3uJ_SWunYqKEZue8_nIL9-GjiT1-H6YLwSar-VIfYlJgod4EjVdfwRUhFSDzNzto9xkvTje7us3G8qA6XEB_Fu7N22Nu9t3dHR-BGvBTLQIEF3ley4l7O2auFQrDufDYYP3y52FPVolqhti97JGfSKTnG-qix-h8hExS-XXdaZqYouBJ_wpzfmSDubcHSagggwgCqEbVyeTSrtWzXHXxd3tOytxNVfcmUf4xJb_bsobEi5zG5jugY5ByGPrz4ElQWgy9PhDqy20yipXhLEDnWeEXMv9zCErzMe7e7m00?></g></svg>