<?plantuml 1.2026.2?><svg xmlns="http://www.w3.org/2000/svg" xmlns:xlink="http://www.w3.org/1999/xlink" contentStyleType="text/css" data-diagram-type="DESCRIPTION" height="1533px" preserveAspectRatio="none" style="width:2578px;height:1533px;background:#FFFFFF;" version="1.1" viewBox="0 0 2578 1533" width="2578px" zoomAndPan="magnify"><title>Diagrama de Paquetes - EPIS Analytics</title><defs/><g><g class="title" data-source-line="1"><text fill="#000000" font-family="sans-serif" font-size="14" font-weight="bold" lengthAdjust="spacing" textLength="260.6543" x="1151.9229" y="24.5332">Diagrama de Paquetes - EPIS Analytics</text></g><!--cluster FE--><g class="cluster" data-qualified-name="FE" data-source-line="25" id="ent0002"><rect fill="#ECFEFF" height="440" rx="2.5" ry="2.5" style="stroke:#CBD5E1;stroke-width:1;" width="1008.5" x="285" y="404.6094"/><text fill="#000000" font-family="sans-serif" font-size="14" font-weight="bold" lengthAdjust="spacing" textLength="117.4346" x="730.5327" y="421.1426">Angular Frontend</text><text fill="#000000" font-family="sans-serif" font-size="14" font-weight="bold" lengthAdjust="spacing" textLength="113.5928" x="732.4536" y="438.752">epis-web/src/app</text></g><!--cluster FEAT--><g class="cluster" data-qualified-name="FE.FEAT" data-source-line="26" id="ent0003"><rect fill="#F8FAFC" height="266" rx="2.5" ry="2.5" style="stroke:#CBD5E1;stroke-width:1;" width="253" x="317" y="474.6094"/><text fill="#000000" font-family="sans-serif" font-size="14" font-weight="bold" lengthAdjust="spacing" textLength="54.4688" x="416.2656" y="491.1426">features</text></g><!--cluster CORE--><g class="cluster" data-qualified-name="FE.CORE" data-source-line="32" id="ent0007"><rect fill="#F8FAFC" height="266" rx="2.5" ry="2.5" style="stroke:#CBD5E1;stroke-width:1;" width="533.5" x="728" y="474.6094"/><text fill="#000000" font-family="sans-serif" font-size="14" font-weight="bold" lengthAdjust="spacing" textLength="29.5723" x="979.9639" y="491.1426">core</text></g><!--cluster API--><g class="cluster" data-qualified-name="API" data-source-line="40" id="ent0012"><rect fill="#EFF6FF" height="319" rx="2.5" ry="2.5" style="stroke:#CBD5E1;stroke-width:1;" width="591.5" x="1073" y="884.6094"/><text fill="#000000" font-family="sans-serif" font-size="14" font-weight="bold" lengthAdjust="spacing" textLength="79.3516" x="1329.0742" y="901.1426">FastAPI API</text><text fill="#000000" font-family="sans-serif" font-size="14" font-weight="bold" lengthAdjust="spacing" textLength="20.2275" x="1358.6362" y="918.752">api</text></g><!--cluster SVC--><g class="cluster" data-qualified-name="SVC" data-source-line="48" id="ent0018"><rect fill="#DCFCE7" height="284" rx="2.5" ry="2.5" style="stroke:#CBD5E1;stroke-width:1;" width="222" x="1824.5" y="975.6094"/><text fill="#000000" font-family="sans-serif" font-size="14" font-weight="bold" lengthAdjust="spacing" textLength="57.6064" x="1906.6968" y="992.1426">Services</text><text fill="#000000" font-family="sans-serif" font-size="14" font-weight="bold" lengthAdjust="spacing" textLength="56.0547" x="1907.4727" y="1009.752">services</text></g><!--cluster REPO--><g class="cluster" data-qualified-name="REPO" data-source-line="54" id="ent0022"><rect fill="#FEF3C7" height="201" rx="2.5" ry="2.5" style="stroke:#CBD5E1;stroke-width:1;" width="493" x="2079.5" y="935.6094"/><text fill="#000000" font-family="sans-serif" font-size="14" font-weight="bold" lengthAdjust="spacing" textLength="84.7998" x="2283.6001" y="952.1426">Repositories</text><text fill="#000000" font-family="sans-serif" font-size="14" font-weight="bold" lengthAdjust="spacing" textLength="80.1377" x="2285.9312" y="969.752">repositories</text></g><!--cluster MOD--><g class="cluster" data-qualified-name="MOD" data-source-line="61" id="ent0027"><rect fill="#F5F3FF" height="367" rx="2.5" ry="2.5" style="stroke:#CBD5E1;stroke-width:1;" width="179" x="2377.5" y="1160.6094"/><text fill="#000000" font-family="sans-serif" font-size="14" font-weight="bold" lengthAdjust="spacing" textLength="48.2275" x="2442.8862" y="1177.1426">Models</text><text fill="#000000" font-family="sans-serif" font-size="14" font-weight="bold" lengthAdjust="spacing" textLength="49.0137" x="2442.4932" y="1194.752">models</text></g><!--cluster INFRA--><g class="cluster" data-qualified-name="INFRA" data-source-line="70" id="ent0033"><rect fill="#FFF7ED" height="319" rx="2.5" ry="2.5" style="stroke:#CBD5E1;stroke-width:1;" width="501.5" x="7" y="45.6094"/><text fill="#000000" font-family="sans-serif" font-size="14" font-weight="bold" lengthAdjust="spacing" textLength="98.8066" x="208.3467" y="62.1426">Infraestructura</text><text fill="#000000" font-family="sans-serif" font-size="14" font-weight="bold" lengthAdjust="spacing" textLength="96.4688" x="209.5156" y="79.752">infra/terraform</text></g><!--entity C_Login--><g class="entity" data-qualified-name="FE.FEAT.C_Login" data-source-line="27" id="ent0004"><rect fill="#FFFFFF" height="47.6094" rx="2.5" ry="2.5" style="stroke:#94A3B8;stroke-width:0.5;" width="146.6338" x="370" y="676.6094"/><rect fill="#FFFFFF" height="10" style="stroke:#94A3B8;stroke-width:0.5;" width="15" x="496.6338" y="681.6094"/><rect fill="#FFFFFF" height="2" style="stroke:#94A3B8;stroke-width:0.5;" width="4" x="494.6338" y="683.6094"/><rect fill="#FFFFFF" height="2" style="stroke:#94A3B8;stroke-width:0.5;" width="4" x="494.6338" y="687.6094"/><text fill="#0F172A" font-family="sans-serif" font-size="14" lengthAdjust="spacing" textLength="106.6338" x="385" y="711.1426">LoginComponent</text></g><!--entity C_Perfil--><g class="entity" data-qualified-name="FE.FEAT.C_Perfil" data-source-line="28" id="ent0005"><rect fill="#FFFFFF" height="47.6094" rx="2.5" ry="2.5" style="stroke:#94A3B8;stroke-width:0.5;" width="212.7646" x="337" y="593.6094"/><rect fill="#FFFFFF" height="10" style="stroke:#94A3B8;stroke-width:0.5;" width="15" x="529.7646" y="598.6094"/><rect fill="#FFFFFF" height="2" style="stroke:#94A3B8;stroke-width:0.5;" width="4" x="527.7646" y="600.6094"/><rect fill="#FFFFFF" height="2" style="stroke:#94A3B8;stroke-width:0.5;" width="4" x="527.7646" y="604.6094"/><text fill="#0F172A" font-family="sans-serif" font-size="14" lengthAdjust="spacing" textLength="172.7646" x="352" y="628.1426">PerfilDashboardComponent</text></g><!--entity C_Global--><g class="entity" data-qualified-name="FE.FEAT.C_Global" data-source-line="29" id="ent0006"><rect fill="#FFFFFF" height="47.6094" rx="2.5" ry="2.5" style="stroke:#94A3B8;stroke-width:0.5;" width="221.3369" x="333" y="510.6094"/><rect fill="#FFFFFF" height="10" style="stroke:#94A3B8;stroke-width:0.5;" width="15" x="534.3369" y="515.6094"/><rect fill="#FFFFFF" height="2" style="stroke:#94A3B8;stroke-width:0.5;" width="4" x="532.3369" y="517.6094"/><rect fill="#FFFFFF" height="2" style="stroke:#94A3B8;stroke-width:0.5;" width="4" x="532.3369" y="521.6094"/><text fill="#0F172A" font-family="sans-serif" font-size="14" lengthAdjust="spacing" textLength="181.3369" x="348" y="545.1426">GlobalDashboardComponent</text></g><!--entity C_AuthClient--><g class="entity" data-qualified-name="FE.CORE.C_AuthClient" data-source-line="33" id="ent0008"><rect fill="#FFFFFF" height="47.6094" rx="2.5" ry="2.5" style="stroke:#94A3B8;stroke-width:0.5;" width="151.2754" x="1094.5" y="663.6094"/><rect fill="#FFFFFF" height="10" style="stroke:#94A3B8;stroke-width:0.5;" width="15" x="1225.7754" y="668.6094"/><rect fill="#FFFFFF" height="2" style="stroke:#94A3B8;stroke-width:0.5;" width="4" x="1223.7754" y="670.6094"/><rect fill="#FFFFFF" height="2" style="stroke:#94A3B8;stroke-width:0.5;" width="4" x="1223.7754" y="674.6094"/><text fill="#0F172A" font-family="sans-serif" font-size="14" lengthAdjust="spacing" textLength="111.2754" x="1109.5" y="698.1426">AuthClientService</text></g><!--entity C_DashboardClient--><g class="entity" data-qualified-name="FE.CORE.C_DashboardClient" data-source-line="34" id="ent0009"><rect fill="#FFFFFF" height="47.6094" rx="2.5" ry="2.5" style="stroke:#94A3B8;stroke-width:0.5;" width="190.9648" x="744" y="510.6094"/><rect fill="#FFFFFF" height="10" style="stroke:#94A3B8;stroke-width:0.5;" width="15" x="914.9648" y="515.6094"/><rect fill="#FFFFFF" height="2" style="stroke:#94A3B8;stroke-width:0.5;" width="4" x="912.9648" y="517.6094"/><rect fill="#FFFFFF" height="2" style="stroke:#94A3B8;stroke-width:0.5;" width="4" x="912.9648" y="521.6094"/><text fill="#0F172A" font-family="sans-serif" font-size="14" lengthAdjust="spacing" textLength="150.9648" x="759" y="545.1426">DashboardClientService</text></g><!--entity C_Guard--><g class="entity" data-qualified-name="FE.CORE.C_Guard" data-source-line="35" id="ent0010"><rect fill="#FFFFFF" height="47.6094" rx="2.5" ry="2.5" style="stroke:#94A3B8;stroke-width:0.5;" width="107.71" x="785.5" y="676.6094"/><rect fill="#FFFFFF" height="10" style="stroke:#94A3B8;stroke-width:0.5;" width="15" x="873.21" y="681.6094"/><rect fill="#FFFFFF" height="2" style="stroke:#94A3B8;stroke-width:0.5;" width="4" x="871.21" y="683.6094"/><rect fill="#FFFFFF" height="2" style="stroke:#94A3B8;stroke-width:0.5;" width="4" x="871.21" y="687.6094"/><text fill="#0F172A" font-family="sans-serif" font-size="14" lengthAdjust="spacing" textLength="67.71" x="800.5" y="711.1426">AuthGuard</text></g><!--entity C_Interceptor--><g class="entity" data-qualified-name="FE.CORE.C_Interceptor" data-source-line="36" id="ent0011"><rect fill="#FFFFFF" height="47.6094" rx="2.5" ry="2.5" style="stroke:#94A3B8;stroke-width:0.5;" width="135.7236" x="771.5" y="593.6094"/><rect fill="#FFFFFF" height="10" style="stroke:#94A3B8;stroke-width:0.5;" width="15" x="887.2236" y="598.6094"/><rect fill="#FFFFFF" height="2" style="stroke:#94A3B8;stroke-width:0.5;" width="4" x="885.2236" y="600.6094"/><rect fill="#FFFFFF" height="2" style="stroke:#94A3B8;stroke-width:0.5;" width="4" x="885.2236" y="604.6094"/><text fill="#0F172A" font-family="sans-serif" font-size="14" lengthAdjust="spacing" textLength="95.7236" x="786.5" y="628.1426">AuthInterceptor</text></g><!--entity A_AuthRoutes--><g class="entity" data-qualified-name="API.A_AuthRoutes" data-source-line="41" id="ent0013"><rect fill="#FFFFFF" height="47.6094" rx="2.5" ry="2.5" style="stroke:#94A3B8;stroke-width:0.5;" width="132.6201" x="1488" y="946.6094"/><rect fill="#FFFFFF" height="10" style="stroke:#94A3B8;stroke-width:0.5;" width="15" x="1600.6201" y="951.6094"/><rect fill="#FFFFFF" height="2" style="stroke:#94A3B8;stroke-width:0.5;" width="4" x="1598.6201" y="953.6094"/><rect fill="#FFFFFF" height="2" style="stroke:#94A3B8;stroke-width:0.5;" width="4" x="1598.6201" y="957.6094"/><text fill="#0F172A" font-family="sans-serif" font-size="14" lengthAdjust="spacing" textLength="92.6201" x="1503" y="981.1426">auth_routes.py</text></g><!--entity A_DashboardRoutes--><g class="entity" data-qualified-name="API.A_DashboardRoutes" data-source-line="42" id="ent0014"><rect fill="#FFFFFF" height="47.6094" rx="2.5" ry="2.5" style="stroke:#94A3B8;stroke-width:0.5;" width="171.5371" x="1468.5" y="1029.6094"/><rect fill="#FFFFFF" height="10" style="stroke:#94A3B8;stroke-width:0.5;" width="15" x="1620.0371" y="1034.6094"/><rect fill="#FFFFFF" height="2" style="stroke:#94A3B8;stroke-width:0.5;" width="4" x="1618.0371" y="1036.6094"/><rect fill="#FFFFFF" height="2" style="stroke:#94A3B8;stroke-width:0.5;" width="4" x="1618.0371" y="1040.6094"/><text fill="#0F172A" font-family="sans-serif" font-size="14" lengthAdjust="spacing" textLength="131.5371" x="1483.5" y="1064.1426">dashboard_routes.py</text></g><!--entity A_Dependencies--><g class="entity" data-qualified-name="API.A_Dependencies" data-source-line="43" id="ent0015"><rect fill="#FFFFFF" height="47.6094" rx="2.5" ry="2.5" style="stroke:#94A3B8;stroke-width:0.5;" width="145.8613" x="1097" y="1112.6094"/><rect fill="#FFFFFF" height="10" style="stroke:#94A3B8;stroke-width:0.5;" width="15" x="1222.8613" y="1117.6094"/><rect fill="#FFFFFF" height="2" style="stroke:#94A3B8;stroke-width:0.5;" width="4" x="1220.8613" y="1119.6094"/><rect fill="#FFFFFF" height="2" style="stroke:#94A3B8;stroke-width:0.5;" width="4" x="1220.8613" y="1123.6094"/><text fill="#0F172A" font-family="sans-serif" font-size="14" lengthAdjust="spacing" textLength="105.8613" x="1112" y="1147.1426">dependencies.py</text></g><!--entity A_Schemas--><g class="entity" data-qualified-name="API.A_Schemas" data-source-line="44" id="ent0016"><rect fill="#FFFFFF" height="47.6094" rx="2.5" ry="2.5" style="stroke:#94A3B8;stroke-width:0.5;" width="114.6963" x="1112.5" y="1029.6094"/><rect fill="#FFFFFF" height="10" style="stroke:#94A3B8;stroke-width:0.5;" width="15" x="1207.1963" y="1034.6094"/><rect fill="#FFFFFF" height="2" style="stroke:#94A3B8;stroke-width:0.5;" width="4" x="1205.1963" y="1036.6094"/><rect fill="#FFFFFF" height="2" style="stroke:#94A3B8;stroke-width:0.5;" width="4" x="1205.1963" y="1040.6094"/><text fill="#0F172A" font-family="sans-serif" font-size="14" lengthAdjust="spacing" textLength="74.6963" x="1127.5" y="1064.1426">schemas.py</text></g><!--entity A_Main--><g class="entity" data-qualified-name="API.A_Main" data-source-line="45" id="ent0017"><rect fill="#FFFFFF" height="47.6094" rx="2.5" ry="2.5" style="stroke:#94A3B8;stroke-width:0.5;" width="89.0205" x="1125.5" y="946.6094"/><rect fill="#FFFFFF" height="10" style="stroke:#94A3B8;stroke-width:0.5;" width="15" x="1194.5205" y="951.6094"/><rect fill="#FFFFFF" height="2" style="stroke:#94A3B8;stroke-width:0.5;" width="4" x="1192.5205" y="953.6094"/><rect fill="#FFFFFF" height="2" style="stroke:#94A3B8;stroke-width:0.5;" width="4" x="1192.5205" y="957.6094"/><text fill="#0F172A" font-family="sans-serif" font-size="14" lengthAdjust="spacing" textLength="49.0205" x="1140.5" y="981.1426">main.py</text></g><!--entity S_Auth--><g class="entity" data-qualified-name="SVC.S_Auth" data-source-line="49" id="ent0019"><rect fill="#FFFFFF" height="47.6094" rx="2.5" ry="2.5" style="stroke:#94A3B8;stroke-width:0.5;" width="115.4824" x="1878" y="1029.6094"/><rect fill="#FFFFFF" height="10" style="stroke:#94A3B8;stroke-width:0.5;" width="15" x="1973.4824" y="1034.6094"/><rect fill="#FFFFFF" height="2" style="stroke:#94A3B8;stroke-width:0.5;" width="4" x="1971.4824" y="1036.6094"/><rect fill="#FFFFFF" height="2" style="stroke:#94A3B8;stroke-width:0.5;" width="4" x="1971.4824" y="1040.6094"/><text fill="#0F172A" font-family="sans-serif" font-size="14" lengthAdjust="spacing" textLength="75.4824" x="1893" y="1064.1426">AuthService</text></g><!--entity S_Analytics--><g class="entity" data-qualified-name="SVC.S_Analytics" data-source-line="50" id="ent0020"><rect fill="#FFFFFF" height="47.6094" rx="2.5" ry="2.5" style="stroke:#94A3B8;stroke-width:0.5;" width="142.7031" x="1864" y="1195.6094"/><rect fill="#FFFFFF" height="10" style="stroke:#94A3B8;stroke-width:0.5;" width="15" x="1986.7031" y="1200.6094"/><rect fill="#FFFFFF" height="2" style="stroke:#94A3B8;stroke-width:0.5;" width="4" x="1984.7031" y="1202.6094"/><rect fill="#FFFFFF" height="2" style="stroke:#94A3B8;stroke-width:0.5;" width="4" x="1984.7031" y="1206.6094"/><text fill="#0F172A" font-family="sans-serif" font-size="14" lengthAdjust="spacing" textLength="102.7031" x="1879" y="1230.1426">AnalyticsService</text></g><!--entity S_Generador--><g class="entity" data-qualified-name="SVC.S_Generador" data-source-line="51" id="ent0021"><rect fill="#FFFFFF" height="47.6094" rx="2.5" ry="2.5" style="stroke:#94A3B8;stroke-width:0.5;" width="190.1855" x="1840.5" y="1112.6094"/><rect fill="#FFFFFF" height="10" style="stroke:#94A3B8;stroke-width:0.5;" width="15" x="2010.6855" y="1117.6094"/><rect fill="#FFFFFF" height="2" style="stroke:#94A3B8;stroke-width:0.5;" width="4" x="2008.6855" y="1119.6094"/><rect fill="#FFFFFF" height="2" style="stroke:#94A3B8;stroke-width:0.5;" width="4" x="2008.6855" y="1123.6094"/><text fill="#0F172A" font-family="sans-serif" font-size="14" lengthAdjust="spacing" textLength="150.1855" x="1855.5" y="1147.1426">GeneradorDatosService</text></g><!--entity R_Usuario--><g class="entity" data-qualified-name="REPO.R_Usuario" data-source-line="55" id="ent0023"><rect fill="#FFFFFF" height="47.6094" rx="2.5" ry="2.5" style="stroke:#94A3B8;stroke-width:0.5;" width="155.1582" x="2389.5" y="989.6094"/><rect fill="#FFFFFF" height="10" style="stroke:#94A3B8;stroke-width:0.5;" width="15" x="2524.6582" y="994.6094"/><rect fill="#FFFFFF" height="2" style="stroke:#94A3B8;stroke-width:0.5;" width="4" x="2522.6582" y="996.6094"/><rect fill="#FFFFFF" height="2" style="stroke:#94A3B8;stroke-width:0.5;" width="4" x="2522.6582" y="1000.6094"/><text fill="#0F172A" font-family="sans-serif" font-size="14" lengthAdjust="spacing" textLength="115.1582" x="2404.5" y="1024.1426">UsuarioRepository</text></g><!--entity R_SQLUsuario--><g class="entity" data-qualified-name="REPO.R_SQLUsuario" data-source-line="56" id="ent0024"><rect fill="#FFFFFF" height="47.6094" rx="2.5" ry="2.5" style="stroke:#94A3B8;stroke-width:0.5;" width="197.958" x="2107" y="989.6094"/><rect fill="#FFFFFF" height="10" style="stroke:#94A3B8;stroke-width:0.5;" width="15" x="2284.958" y="994.6094"/><rect fill="#FFFFFF" height="2" style="stroke:#94A3B8;stroke-width:0.5;" width="4" x="2282.958" y="996.6094"/><rect fill="#FFFFFF" height="2" style="stroke:#94A3B8;stroke-width:0.5;" width="4" x="2282.958" y="1000.6094"/><text fill="#0F172A" font-family="sans-serif" font-size="14" lengthAdjust="spacing" textLength="157.958" x="2122" y="1024.1426">SQLiteUsuarioRepository</text></g><!--entity R_Publicacion--><g class="entity" data-qualified-name="REPO.R_Publicacion" data-source-line="57" id="ent0025"><rect fill="#FFFFFF" height="47.6094" rx="2.5" ry="2.5" style="stroke:#94A3B8;stroke-width:0.5;" width="178.5166" x="2377.5" y="1072.6094"/><rect fill="#FFFFFF" height="10" style="stroke:#94A3B8;stroke-width:0.5;" width="15" x="2536.0166" y="1077.6094"/><rect fill="#FFFFFF" height="2" style="stroke:#94A3B8;stroke-width:0.5;" width="4" x="2534.0166" y="1079.6094"/><rect fill="#FFFFFF" height="2" style="stroke:#94A3B8;stroke-width:0.5;" width="4" x="2534.0166" y="1083.6094"/><text fill="#0F172A" font-family="sans-serif" font-size="14" lengthAdjust="spacing" textLength="138.5166" x="2392.5" y="1107.1426">PublicacionRepository</text></g><!--entity R_SQLPublicacion--><g class="entity" data-qualified-name="REPO.R_SQLPublicacion" data-source-line="58" id="ent0026"><rect fill="#FFFFFF" height="47.6094" rx="2.5" ry="2.5" style="stroke:#94A3B8;stroke-width:0.5;" width="221.3164" x="2095.5" y="1072.6094"/><rect fill="#FFFFFF" height="10" style="stroke:#94A3B8;stroke-width:0.5;" width="15" x="2296.8164" y="1077.6094"/><rect fill="#FFFFFF" height="2" style="stroke:#94A3B8;stroke-width:0.5;" width="4" x="2294.8164" y="1079.6094"/><rect fill="#FFFFFF" height="2" style="stroke:#94A3B8;stroke-width:0.5;" width="4" x="2294.8164" y="1083.6094"/><text fill="#0F172A" font-family="sans-serif" font-size="14" lengthAdjust="spacing" textLength="181.3164" x="2110.5" y="1107.1426">SQLitePublicacionRepository</text></g><!--entity M_Usuario--><g class="entity" data-qualified-name="MOD.M_Usuario" data-source-line="62" id="ent0028"><rect fill="#FFFFFF" height="47.6094" rx="2.5" ry="2.5" style="stroke:#94A3B8;stroke-width:0.5;" width="88.2412" x="2423" y="1214.6094"/><rect fill="#FFFFFF" height="10" style="stroke:#94A3B8;stroke-width:0.5;" width="15" x="2491.2412" y="1219.6094"/><rect fill="#FFFFFF" height="2" style="stroke:#94A3B8;stroke-width:0.5;" width="4" x="2489.2412" y="1221.6094"/><rect fill="#FFFFFF" height="2" style="stroke:#94A3B8;stroke-width:0.5;" width="4" x="2489.2412" y="1225.6094"/><text fill="#0F172A" font-family="sans-serif" font-size="14" lengthAdjust="spacing" textLength="48.2412" x="2438" y="1249.1426">Usuario</text></g><!--entity M_Publicacion--><g class="entity" data-qualified-name="MOD.M_Publicacion" data-source-line="63" id="ent0029"><rect fill="#FFFFFF" height="47.6094" rx="2.5" ry="2.5" style="stroke:#94A3B8;stroke-width:0.5;" width="111.5996" x="2411" y="1297.6094"/><rect fill="#FFFFFF" height="10" style="stroke:#94A3B8;stroke-width:0.5;" width="15" x="2502.5996" y="1302.6094"/><rect fill="#FFFFFF" height="2" style="stroke:#94A3B8;stroke-width:0.5;" width="4" x="2500.5996" y="1304.6094"/><rect fill="#FFFFFF" height="2" style="stroke:#94A3B8;stroke-width:0.5;" width="4" x="2500.5996" y="1308.6094"/><text fill="#0F172A" font-family="sans-serif" font-size="14" lengthAdjust="spacing" textLength="71.5996" x="2426" y="1332.1426">Publicacion</text></g><!--entity M_Filtros--><g class="entity" data-qualified-name="MOD.M_Filtros" data-source-line="64" id="ent0030"><rect fill="#FFFFFF" height="47.6094" rx="2.5" ry="2.5" style="stroke:#94A3B8;stroke-width:0.5;" width="146.5996" x="2393.5" y="1463.6094"/><rect fill="#FFFFFF" height="10" style="stroke:#94A3B8;stroke-width:0.5;" width="15" x="2520.0996" y="1468.6094"/><rect fill="#FFFFFF" height="2" style="stroke:#94A3B8;stroke-width:0.5;" width="4" x="2518.0996" y="1470.6094"/><rect fill="#FFFFFF" height="2" style="stroke:#94A3B8;stroke-width:0.5;" width="4" x="2518.0996" y="1474.6094"/><text fill="#0F172A" font-family="sans-serif" font-size="14" lengthAdjust="spacing" textLength="106.5996" x="2408.5" y="1498.1426">FiltrosDashboard</text></g><!--entity M_Catalogos--><g class="entity" data-qualified-name="MOD.M_Catalogos" data-source-line="65" id="ent0031"><rect fill="#FFFFFF" height="47.6094" rx="2.5" ry="2.5" style="stroke:#94A3B8;stroke-width:0.5;" width="103.041" x="2415.5" y="1380.6094"/><rect fill="#FFFFFF" height="10" style="stroke:#94A3B8;stroke-width:0.5;" width="15" x="2498.541" y="1385.6094"/><rect fill="#FFFFFF" height="2" style="stroke:#94A3B8;stroke-width:0.5;" width="4" x="2496.541" y="1387.6094"/><rect fill="#FFFFFF" height="2" style="stroke:#94A3B8;stroke-width:0.5;" width="4" x="2496.541" y="1391.6094"/><text fill="#0F172A" font-family="sans-serif" font-size="14" lengthAdjust="spacing" textLength="63.041" x="2430.5" y="1415.1426">Catalogos</text></g><!--entity T_Main--><g class="entity" data-qualified-name="INFRA.T_Main" data-source-line="71" id="ent0034"><rect fill="#FFFFFF" height="47.6094" rx="2.5" ry="2.5" style="stroke:#94A3B8;stroke-width:0.5;" width="82.0137" x="402.5" y="262.6094"/><rect fill="#FFFFFF" height="10" style="stroke:#94A3B8;stroke-width:0.5;" width="15" x="464.5137" y="267.6094"/><rect fill="#FFFFFF" height="2" style="stroke:#94A3B8;stroke-width:0.5;" width="4" x="462.5137" y="269.6094"/><rect fill="#FFFFFF" height="2" style="stroke:#94A3B8;stroke-width:0.5;" width="4" x="462.5137" y="273.6094"/><text fill="#0F172A" font-family="sans-serif" font-size="14" lengthAdjust="spacing" textLength="42.0137" x="417.5" y="297.1426">main.tf</text></g><!--entity T_Vars--><g class="entity" data-qualified-name="INFRA.T_Vars" data-source-line="72" id="ent0035"><rect fill="#FFFFFF" height="47.6094" rx="2.5" ry="2.5" style="stroke:#94A3B8;stroke-width:0.5;" width="107.6963" x="31" y="107.6094"/><rect fill="#FFFFFF" height="10" style="stroke:#94A3B8;stroke-width:0.5;" width="15" x="118.6963" y="112.6094"/><rect fill="#FFFFFF" height="2" style="stroke:#94A3B8;stroke-width:0.5;" width="4" x="116.6963" y="114.6094"/><rect fill="#FFFFFF" height="2" style="stroke:#94A3B8;stroke-width:0.5;" width="4" x="116.6963" y="118.6094"/><text fill="#0F172A" font-family="sans-serif" font-size="14" lengthAdjust="spacing" textLength="67.6963" x="46" y="142.1426">variables.tf</text></g><!--entity T_Out--><g class="entity" data-qualified-name="INFRA.T_Out" data-source-line="73" id="ent0036"><rect fill="#FFFFFF" height="47.6094" rx="2.5" ry="2.5" style="stroke:#94A3B8;stroke-width:0.5;" width="97.5928" x="36" y="190.6094"/><rect fill="#FFFFFF" height="10" style="stroke:#94A3B8;stroke-width:0.5;" width="15" x="113.5928" y="195.6094"/><rect fill="#FFFFFF" height="2" style="stroke:#94A3B8;stroke-width:0.5;" width="4" x="111.5928" y="197.6094"/><rect fill="#FFFFFF" height="2" style="stroke:#94A3B8;stroke-width:0.5;" width="4" x="111.5928" y="201.6094"/><text fill="#0F172A" font-family="sans-serif" font-size="14" lengthAdjust="spacing" textLength="57.5928" x="51" y="225.1426">outputs.tf</text></g><!--entity T_Cost--><g class="entity" data-qualified-name="INFRA.T_Cost" data-source-line="74" id="ent0037"><rect fill="#FFFFFF" height="47.6094" rx="2.5" ry="2.5" style="stroke:#94A3B8;stroke-width:0.5;" width="93.6895" x="38" y="273.6094"/><rect fill="#FFFFFF" height="10" style="stroke:#94A3B8;stroke-width:0.5;" width="15" x="111.6895" y="278.6094"/><rect fill="#FFFFFF" height="2" style="stroke:#94A3B8;stroke-width:0.5;" width="4" x="109.6895" y="280.6094"/><rect fill="#FFFFFF" height="2" style="stroke:#94A3B8;stroke-width:0.5;" width="4" x="109.6895" y="284.6094"/><text fill="#0F172A" font-family="sans-serif" font-size="14" lengthAdjust="spacing" textLength="53.6895" x="53" y="308.1426">Infracost</text></g><!--entity DB--><g class="entity" data-qualified-name="DB" data-source-line="68" id="ent0032"><path d="M2417,865.6094 C2417,855.6094 2467.0894,855.6094 2467.0894,855.6094 C2467.0894,855.6094 2517.1787,855.6094 2517.1787,865.6094 L2517.1787,909.8281 C2517.1787,919.8281 2467.0894,919.8281 2467.0894,919.8281 C2467.0894,919.8281 2417,919.8281 2417,909.8281 L2417,865.6094" fill="#FFF7ED" style="stroke:#F97316;stroke-width:0.5;"/><path d="M2417,865.6094 C2417,875.6094 2467.0894,875.6094 2467.0894,875.6094 C2467.0894,875.6094 2517.1787,875.6094 2517.1787,865.6094" fill="none" style="stroke:#F97316;stroke-width:0.5;"/><text fill="#0F172A" font-family="sans-serif" font-size="14" lengthAdjust="spacing" textLength="42.7998" x="2427" y="894.1426">SQLite</text><text fill="#0F172A" font-family="sans-serif" font-size="14" lengthAdjust="spacing" textLength="80.1787" x="2427" y="911.752">epis_data.db</text></g><!--link C_Login to C_AuthClient--><g class="link" data-entity-1="ent0004" data-entity-2="ent0008" data-link-type="dependency" data-source-line="77" id="lnk38"><path d="M517.27,715.7594 C536.99,719.8994 558.32,724.3994 578,728.6094 C733.74,761.9394 777.51,783.2894 935,759.6094 C995.53,750.5094 1056.3715,730.9478 1102.9515,713.7478" fill="none" id="C_Login-to-C_AuthClient" style="stroke:#334155;stroke-width:1.8;"/><polygon fill="#334155" points="1108.58,711.6694,1098.7516,711.0346,1103.8896,713.4014,1101.5228,718.5393,1108.58,711.6694" style="stroke:#334155;stroke-width:1.8;"/><text fill="#000000" font-family="sans-serif" font-size="13" lengthAdjust="spacing" textLength="52.7617" x="813.5" y="756.1045">autentica</text></g><!--link C_Perfil to C_DashboardClient--><g class="link" data-entity-1="ent0005" data-entity-2="ent0009" data-link-type="dependency" data-source-line="78" id="lnk39"><path d="M550.08,595.3694 C610.38,582.6694 679.4789,568.1061 737.8689,555.8061" fill="none" id="C_Perfil-to-C_DashboardClient" style="stroke:#334155;stroke-width:1.8;"/><polygon fill="#334155" points="743.74,554.5694,734.1088,552.5104,738.8474,555.6,735.7578,560.3386,743.74,554.5694" style="stroke:#334155;stroke-width:1.8;"/><text fill="#000000" font-family="sans-serif" font-size="13" lengthAdjust="spacing" textLength="92.4663" x="603" y="558.1045">solicita metricas</text></g><!--link C_Global to C_DashboardClient--><g class="link" data-entity-1="ent0006" data-entity-2="ent0009" data-link-type="dependency" data-source-line="79" id="lnk40"><path d="M554.25,534.6094 C613.79,534.6094 680.66,534.6094 737.71,534.6094" fill="none" id="C_Global-to-C_DashboardClient" style="stroke:#334155;stroke-width:1.8;"/><polygon fill="#334155" points="743.71,534.6094,734.71,530.6094,738.71,534.6094,734.71,538.6094,743.71,534.6094" style="stroke:#334155;stroke-width:1.8;"/><text fill="#000000" font-family="sans-serif" font-size="13" lengthAdjust="spacing" textLength="104.7871" x="597" y="531.1045">solicita agregados</text></g><!--link C_Guard to C_AuthClient--><g class="link" data-entity-1="ent0010" data-entity-2="ent0008" data-link-type="dependency" data-source-line="80" id="lnk41"><path d="M893.63,698.6194 C935.77,697.0294 996.15,694.7194 1049,692.6094 C1063.69,692.0194 1073.3951,691.6265 1088.4351,691.0065" fill="none" id="C_Guard-to-C_AuthClient" style="stroke:#334155;stroke-width:1.8;"/><polygon fill="#334155" points="1094.43,690.7594,1085.2729,687.1335,1089.4342,690.9653,1085.6024,695.1267,1094.43,690.7594" style="stroke:#334155;stroke-width:1.8;"/><text fill="#000000" font-family="sans-serif" font-size="13" lengthAdjust="spacing" textLength="82.3672" x="966" y="689.1045">verifica sesion</text></g><!--link C_Interceptor to C_AuthClient--><g class="link" data-entity-1="ent0011" data-entity-2="ent0008" data-link-type="dependency" data-source-line="81" id="lnk42"><path d="M907.77,631.9394 C962.02,643.4994 1032.3818,658.4988 1088.5018,670.4588" fill="none" id="C_Interceptor-to-C_AuthClient" style="stroke:#334155;stroke-width:1.8;"/><polygon fill="#334155" points="1094.37,671.7094,1086.4014,665.9213,1089.4798,670.6672,1084.7339,673.7456,1094.37,671.7094" style="stroke:#334155;stroke-width:1.8;"/><text fill="#000000" font-family="sans-serif" font-size="13" lengthAdjust="spacing" textLength="78.0635" x="968" y="641.1045">obtiene token</text></g><!--link C_AuthClient to A_AuthRoutes--><g class="link" data-entity-1="ent0008" data-entity-2="ent0013" data-link-type="dependency" data-source-line="83" id="lnk43"><path d="M1203.61,711.7394 C1275.88,765.2094 1443.9566,889.5608 1516.1466,942.9708" fill="none" id="C_AuthClient-to-A_AuthRoutes" style="stroke:#334155;stroke-width:1.8;"/><polygon fill="#334155" points="1520.97,946.5394,1516.114,937.9709,1516.9505,943.5655,1511.3558,944.4021,1520.97,946.5394" style="stroke:#334155;stroke-width:1.8;"/><text fill="#000000" font-family="sans-serif" font-size="13" lengthAdjust="spacing" textLength="119.958" x="1318.5" y="800.1045">POST /api/auth/login</text></g><!--link C_DashboardClient to A_DashboardRoutes--><g class="link" data-entity-1="ent0009" data-entity-2="ent0014" data-link-type="dependency" data-source-line="84" id="lnk44"><path d="M935.09,533.0794 C1038.42,536.3594 1203.33,556.6994 1309.5,645.6094 C1445.78,759.7394 1345.38,884.3894 1468.5,1012.6094 C1474.74,1019.1094 1477.0877,1021.6014 1484.9977,1026.3914" fill="none" id="C_DashboardClient-to-A_DashboardRoutes" style="stroke:#334155;stroke-width:1.8;"/><polygon fill="#334155" points="1490.13,1029.4994,1484.5035,1021.4159,1485.8531,1026.9094,1480.3596,1028.259,1490.13,1029.4994" style="stroke:#334155;stroke-width:1.8;"/><text fill="#000000" font-family="sans-serif" font-size="13" lengthAdjust="spacing" textLength="121.3989" x="1109.3091" y="526.1045">GET /api/estudiantes</text><text fill="#000000" font-family="sans-serif" font-size="13" lengthAdjust="spacing" textLength="125.0171" x="1107.5" y="542.4561">GET /api/dashboard/*</text></g><!--link A_Main to A_AuthRoutes--><g class="link" data-entity-1="ent0017" data-entity-2="ent0013" data-link-type="dependency" data-source-line="86" id="lnk45"><path d="M1214.51,970.6094 C1281.28,970.6094 1403.48,970.6094 1481.66,970.6094" fill="none" id="A_Main-to-A_AuthRoutes" style="stroke:#334155;stroke-width:1.8;"/><polygon fill="#334155" points="1487.66,970.6094,1478.66,966.6094,1482.66,970.6094,1478.66,974.6094,1487.66,970.6094" style="stroke:#334155;stroke-width:1.8;"/></g><!--link A_Main to A_DashboardRoutes--><g class="link" data-entity-1="ent0017" data-entity-2="ent0014" data-link-type="dependency" data-source-line="87" id="lnk46"><path d="M1214.51,980.0494 C1275.99,993.3894 1383.6964,1016.7673 1462.3364,1033.8273" fill="none" id="A_Main-to-A_DashboardRoutes" style="stroke:#334155;stroke-width:1.8;"/><polygon fill="#334155" points="1468.2,1035.0994,1460.2526,1029.2822,1463.3137,1034.0393,1458.5566,1037.1004,1468.2,1035.0994" style="stroke:#334155;stroke-width:1.8;"/></g><!--link A_AuthRoutes to S_Auth--><g class="link" data-entity-1="ent0013" data-entity-2="ent0019" data-link-type="dependency" data-source-line="88" id="lnk47"><path d="M1621.08,984.9694 C1693.54,1000.8394 1803.179,1024.8456 1871.889,1039.8956" fill="none" id="A_AuthRoutes-to-S_Auth" style="stroke:#334155;stroke-width:1.8;"/><polygon fill="#334155" points="1877.75,1041.1794,1869.8143,1035.3463,1872.8658,1040.1096,1868.1026,1043.1611,1877.75,1041.1794" style="stroke:#334155;stroke-width:1.8;"/></g><!--link A_DashboardRoutes to S_Auth--><g class="link" data-entity-1="ent0014" data-entity-2="ent0019" data-link-type="dependency" data-source-line="89" id="lnk48"><path d="M1640.55,1053.6094 C1713.01,1053.6094 1809.1,1053.6094 1871.92,1053.6094" fill="none" id="A_DashboardRoutes-to-S_Auth" style="stroke:#334155;stroke-width:1.8;"/><polygon fill="#334155" points="1877.92,1053.6094,1868.92,1049.6094,1872.92,1053.6094,1868.92,1057.6094,1877.92,1053.6094" style="stroke:#334155;stroke-width:1.8;"/><text fill="#000000" font-family="sans-serif" font-size="13" lengthAdjust="spacing" textLength="69.3799" x="1714" y="1050.1045">valida token</text></g><!--link A_DashboardRoutes to S_Analytics--><g class="link" data-entity-1="ent0014" data-entity-2="ent0020" data-link-type="dependency" data-source-line="90" id="lnk49"><path d="M1601.93,1077.7994 C1653.58,1104.2494 1739.84,1147.0494 1816.5,1178.6094 C1831.64,1184.8394 1842.4608,1188.976 1858.1608,1194.506" fill="none" id="A_DashboardRoutes-to-S_Analytics" style="stroke:#334155;stroke-width:1.8;"/><polygon fill="#334155" points="1863.82,1196.4994,1856.6601,1189.7366,1859.104,1194.8383,1854.0023,1197.2822,1863.82,1196.4994" style="stroke:#334155;stroke-width:1.8;"/><text fill="#000000" font-family="sans-serif" font-size="13" lengthAdjust="spacing" textLength="118.5171" x="1689.5" y="1119.1045">consulta indicadores</text></g><!--link A_Dependencies to S_Auth--><g class="link" data-entity-1="ent0015" data-entity-2="ent0019" data-link-type="dependency" data-source-line="91" id="lnk50"><path d="M1243.33,1132.6994 C1342.27,1126.9094 1525.26,1114.6594 1680.5,1095.6094 C1748.71,1087.2394 1820.7087,1074.8633 1872.0487,1065.4333" fill="none" id="A_Dependencies-to-S_Auth" style="stroke:#334155;stroke-width:1.8;"/><polygon fill="#334155" points="1877.95,1064.3494,1868.3755,1062.0411,1873.0323,1065.2527,1869.8207,1069.9095,1877.95,1064.3494" style="stroke:#334155;stroke-width:1.8;"/></g><!--link A_Dependencies to S_Analytics--><g class="link" data-entity-1="ent0015" data-entity-2="ent0020" data-link-type="dependency" data-source-line="92" id="lnk51"><path d="M1243.17,1144.4594 C1389.35,1160.3494 1712.8451,1195.5109 1857.8151,1211.2709" fill="none" id="A_Dependencies-to-S_Analytics" style="stroke:#334155;stroke-width:1.8;"/><polygon fill="#334155" points="1863.78,1211.9194,1855.265,1206.9701,1858.8093,1211.379,1854.4004,1214.9233,1863.78,1211.9194" style="stroke:#334155;stroke-width:1.8;"/></g><!--link S_Auth to R_SQLUsuario--><g class="link" data-entity-1="ent0019" data-entity-2="ent0024" data-link-type="dependency" data-source-line="94" id="lnk52"><path d="M1993.11,1045.1794 C2026.12,1040.2594 2062.7254,1034.8028 2101.0154,1029.1028" fill="none" id="S_Auth-to-R_SQLUsuario" style="stroke:#334155;stroke-width:1.8;"/><polygon fill="#334155" points="2106.95,1028.2194,2097.4591,1025.5881,2102.0045,1028.9556,2098.6371,1033.5009,2106.95,1028.2194" style="stroke:#334155;stroke-width:1.8;"/></g><!--link S_Auth to R_SQLPublicacion--><g class="link" data-entity-1="ent0019" data-entity-2="ent0026" data-link-type="dependency" data-source-line="95" id="lnk53"><path d="M1993.11,1062.6794 C2022.81,1067.4294 2054.2955,1072.4708 2089.3955,1078.0908" fill="none" id="S_Auth-to-R_SQLPublicacion" style="stroke:#334155;stroke-width:1.8;"/><polygon fill="#334155" points="2095.32,1079.0394,2087.0656,1073.6668,2090.3829,1078.2489,2085.8008,1081.5662,2095.32,1079.0394" style="stroke:#334155;stroke-width:1.8;"/></g><!--link S_Analytics to R_SQLPublicacion--><g class="link" data-entity-1="ent0020" data-entity-2="ent0026" data-link-type="dependency" data-source-line="96" id="lnk54"><path d="M2007.12,1197.1994 C2022.9,1191.5994 2039.43,1185.2794 2054.5,1178.6094 C2093.14,1161.5094 2130.0389,1141.1753 2159.8489,1123.7653" fill="none" id="S_Analytics-to-R_SQLPublicacion" style="stroke:#334155;stroke-width:1.8;"/><polygon fill="#334155" points="2165.03,1120.7394,2155.2411,1121.8242,2160.7124,1123.261,2159.2756,1128.7323,2165.03,1120.7394" style="stroke:#334155;stroke-width:1.8;"/></g><!--link S_Generador to R_SQLPublicacion--><g class="link" data-entity-1="ent0021" data-entity-2="ent0026" data-link-type="dependency" data-source-line="97" id="lnk55"><path d="M2030.79,1122.5594 C2051.64,1119.4594 2067.9756,1117.024 2089.3756,1113.834" fill="none" id="S_Generador-to-R_SQLPublicacion" style="stroke:#334155;stroke-width:1.8;"/><polygon fill="#334155" points="2095.31,1112.9494,2085.8186,1110.32,2090.3646,1113.6866,2086.9981,1118.2326,2095.31,1112.9494" style="stroke:#334155;stroke-width:1.8;"/></g><!--link S_Generador to R_SQLUsuario--><g class="link" data-entity-1="ent0021" data-entity-2="ent0024" data-link-type="dependency" data-source-line="98" id="lnk56"><path d="M2030.31,1112.5494 C2039.1,1107.8594 2047.37,1102.2694 2054.5,1095.6094 C2068.61,1082.4194 2057.19,1068.5894 2071.5,1055.6094 C2081.67,1046.3894 2088.3555,1041.5999 2101.1655,1035.9799" fill="none" id="S_Generador-to-R_SQLUsuario" style="stroke:#334155;stroke-width:1.8;"/><polygon fill="#334155" points="2106.66,1033.5694,2096.8113,1033.5222,2102.0813,1035.5782,2100.0253,1040.8482,2106.66,1033.5694" style="stroke:#334155;stroke-width:1.8;"/></g><!--link R_SQLUsuario to R_Usuario--><g class="link" data-entity-1="ent0024" data-entity-2="ent0023" data-link-type="extension" data-source-line="100" id="lnk57"><path d="M2305.29,1013.6094 C2333.05,1013.6094 2344.85,1013.6094 2371.15,1013.6094" fill="none" id="R_SQLUsuario-to-R_Usuario" style="stroke:#334155;stroke-width:1.8;stroke-dasharray:7,7;"/><polygon fill="none" points="2389.15,1013.6094,2371.15,1007.6094,2371.15,1019.6094,2389.15,1013.6094" style="stroke:#334155;stroke-width:1.8;"/></g><!--link R_SQLPublicacion to R_Publicacion--><g class="link" data-entity-1="ent0026" data-entity-2="ent0025" data-link-type="extension" data-source-line="101" id="lnk58"><path d="M2316.84,1096.6094 C2336.97,1096.6094 2339.75,1096.6094 2359.17,1096.6094" fill="none" id="R_SQLPublicacion-to-R_Publicacion" style="stroke:#334155;stroke-width:1.8;stroke-dasharray:7,7;"/><polygon fill="none" points="2377.17,1096.6094,2359.17,1090.6094,2359.17,1102.6094,2377.17,1096.6094" style="stroke:#334155;stroke-width:1.8;"/></g><!--link R_SQLUsuario to DB--><g class="link" data-entity-1="ent0024" data-entity-2="ent0032" data-link-type="dependency" data-source-line="102" id="lnk59"><path d="M2245.23,989.5594 C2272.79,972.7494 2311.2,950.3994 2346.5,933.6094 C2369.08,922.8694 2389.2694,914.7522 2411.1094,906.7122" fill="none" id="R_SQLUsuario-to-DB" style="stroke:#334155;stroke-width:1.8;"/><polygon fill="#334155" points="2416.74,904.6394,2406.9123,903.9948,2412.0478,906.3667,2409.676,911.5023,2416.74,904.6394" style="stroke:#334155;stroke-width:1.8;"/></g><!--link R_SQLPublicacion to DB--><g class="link" data-entity-1="ent0026" data-entity-2="ent0032" data-link-type="dependency" data-source-line="103" id="lnk60"><path d="M2289.12,1072.5994 C2298.88,1067.8494 2308.28,1062.2294 2316.5,1055.6094 C2350.31,1028.3994 2341.27,1006.5694 2369.5,973.6094 C2386.14,954.1794 2402.5146,938.869 2420.6446,923.569" fill="none" id="R_SQLPublicacion-to-DB" style="stroke:#334155;stroke-width:1.8;"/><polygon fill="#334155" points="2425.23,919.6994,2415.7721,922.4469,2421.4088,922.9241,2420.9317,928.5608,2425.23,919.6994" style="stroke:#334155;stroke-width:1.8;"/></g><!--link R_SQLUsuario to M_Usuario--><g class="link" data-entity-1="ent0024" data-entity-2="ent0028" data-link-type="dependency" data-source-line="105" id="lnk61"><path d="M2287.39,1037.6194 C2297.76,1042.6294 2307.78,1048.5794 2316.5,1055.6094 C2349.98,1082.6194 2342.83,1102.8494 2369.5,1136.6094 C2391.86,1164.9194 2416.3459,1190.3784 2436.6359,1210.3684" fill="none" id="R_SQLUsuario-to-M_Usuario" style="stroke:#334155;stroke-width:1.8;"/><polygon fill="#334155" points="2440.91,1214.5794,2437.3061,1205.4136,2437.3482,1211.0703,2431.6915,1211.1124,2440.91,1214.5794" style="stroke:#334155;stroke-width:1.8;"/></g><!--link R_SQLPublicacion to M_Publicacion--><g class="link" data-entity-1="ent0026" data-entity-2="ent0029" data-link-type="dependency" data-source-line="106" id="lnk62"><path d="M2223.02,1120.8894 C2249.46,1159.3494 2305.71,1234.6294 2369.5,1280.6094 C2381.98,1289.5994 2391.2105,1294.7767 2405.3805,1300.8167" fill="none" id="R_SQLPublicacion-to-M_Publicacion" style="stroke:#334155;stroke-width:1.8;"/><polygon fill="#334155" points="2410.9,1303.1694,2404.1892,1295.9607,2406.3004,1301.2088,2401.0523,1303.32,2410.9,1303.1694" style="stroke:#334155;stroke-width:1.8;"/></g><!--link S_Analytics to M_Filtros--><g class="link" data-entity-1="ent0020" data-entity-2="ent0030" data-link-type="dependency" data-source-line="107" id="lnk63"><path d="M1953.89,1243.7694 C1976.04,1272.9394 2016.96,1321.6694 2062.5,1350.6094 C2167.55,1417.3694 2302.9465,1454.2766 2387.4365,1472.6166" fill="none" id="S_Analytics-to-M_Filtros" style="stroke:#334155;stroke-width:1.8;"/><polygon fill="#334155" points="2393.3,1473.8894,2385.3533,1468.0713,2388.4138,1472.8287,2383.6563,1475.8892,2393.3,1473.8894" style="stroke:#334155;stroke-width:1.8;"/></g><!--link S_Generador to M_Catalogos--><g class="link" data-entity-1="ent0021" data-entity-2="ent0031" data-link-type="dependency" data-source-line="108" id="lnk64"><path d="M2011.01,1160.7194 C2025.63,1166.1194 2040.71,1172.1694 2054.5,1178.6094 C2201.64,1247.2494 2224.48,1290.5994 2369.5,1363.6094 C2384.13,1370.9794 2394.8722,1375.8962 2409.8222,1382.2062" fill="none" id="S_Generador-to-M_Catalogos" style="stroke:#334155;stroke-width:1.8;"/><polygon fill="#334155" points="2415.35,1384.5394,2408.6137,1377.3545,2410.7435,1382.5951,2405.5029,1384.7249,2415.35,1384.5394" style="stroke:#334155;stroke-width:1.8;"/></g><!--link INFRA to API--><g class="link" data-entity-1="ent0033" data-entity-2="ent0012" data-link-type="dependency" data-source-line="110" id="lnk65"><path d="M85.9979,364.7188 C85.9999,364.9477 86.002,365.1811 86.0043,365.4191 C86.009,365.8951 86.0144,366.3894 86.0207,366.9016 C86.0458,368.9503 86.0846,371.2862 86.1429,373.8922 C86.3763,384.3163 86.9235,399.062 88.1689,417.0347 C90.6597,452.98 95.9431,501.8331 107.0938,554.8369 C129.395,660.8444 175.165,783.4544 269,852.6094 C573.83,1077.2594 692.98,1072.2994 1057,1176.6094 C1059.9863,1177.465 1063.029,1178.2873 1066.1099,1179.077 C1067.6504,1179.4719 1069.2005,1179.8587 1070.7578,1180.2374 C1071.1471,1180.3321 1071.5369,1180.4263 1071.9271,1180.52 C1072.1222,1180.5668 1066.4812,1179.2212 1066.6765,1179.2678" fill="none" id="INFRA-to-API" style="stroke:#334155;stroke-width:1.8;stroke-dasharray:7,7;"/><polygon fill="#334155" points="1072.5127,1180.6602,1064.6866,1174.6808,1067.6492,1179.4999,1062.8302,1182.4625,1072.5127,1180.6602" style="stroke:#334155;stroke-width:1.8;"/><text fill="#000000" font-family="sans-serif" font-size="13" lengthAdjust="spacing" textLength="124.3188" x="587" y="1020.1045">despliegue propuesto</text><text fill="#000000" font-family="sans-serif" font-size="13" lengthAdjust="spacing" textLength="49.1499" x="624.5845" y="1036.4561">backend</text></g><!--link INFRA to FE--><g class="link" data-entity-1="ent0033" data-entity-2="ent0002" data-link-type="dependency" data-source-line="111" id="lnk66"><path d="M87.9191,364.8633 C88.0111,365.2455 88.1065,365.6402 88.2052,366.0473 C88.4027,366.8613 88.6137,367.7246 88.8382,368.6359 C90.6343,375.9263 93.2984,386.2856 96.8736,399.0369 C104.0241,424.5394 114.8194,459.6094 129.6063,498.8294 C159.18,577.2694 204.72,672.3094 269,740.6094 C272.7156,744.5575 276.6308,748.3832 280.7069,752.0866 C281.7259,753.0125 282.7549,753.9307 283.7935,754.8412 C284.0531,755.0689 279.7848,751.36 280.0456,751.5866" fill="none" id="INFRA-to-FE" style="stroke:#334155;stroke-width:1.8;stroke-dasharray:7,7;"/><polygon fill="#334155" points="284.5741,755.5227,280.4054,746.5996,280.8004,752.2427,275.1573,752.6376,284.5741,755.5227" style="stroke:#334155;stroke-width:1.8;"/><text fill="#000000" font-family="sans-serif" font-size="13" lengthAdjust="spacing" textLength="90.3335" x="170" y="578.1045">hosting estatico</text><text fill="#000000" font-family="sans-serif" font-size="13" lengthAdjust="spacing" textLength="47.7026" x="191.3154" y="594.4561">frontend</text></g><!--link T_Cost to T_Main--><g class="link" data-entity-1="ent0037" data-entity-2="ent0034" data-link-type="dependency" data-source-line="112" id="lnk67"><path d="M132.24,296.1794 C202.7,294.0094 329.7728,290.0839 396.3928,288.0339" fill="none" id="T_Cost-to-T_Main" style="stroke:#334155;stroke-width:1.8;stroke-dasharray:7,7;"/><polygon fill="#334155" points="402.39,287.8494,393.2712,284.1281,397.3924,288.0032,393.5173,292.1243,402.39,287.8494" style="stroke:#334155;stroke-width:1.8;"/><text fill="#000000" font-family="sans-serif" font-size="13" lengthAdjust="spacing" textLength="79.4727" x="175.5" y="289.1045">estima costos</text></g><?plantuml-src bLTTR-Ce57tthq3jsqfD9flfjDE7IgvZLvMccspIdQT84RQ9W-g05t2hQdV_-rumTZ1sPZIHek1xp-5-0CT4KLKIjA2u4FY8KKxG2lzT4qKakaBnwcc3GeRB3qKp6GGbsIkaE1AqE2YKKq4oHJaBv2jb5OO9K8MpLroGZVg0MRKRiw8a3a0USCxVAIlG7fVIzOH2yFU8broWo_dyy-pwsdU-76ZsoeYKQ3Qv7GP5_mG8FS2u4BnckPqgkKt29D8UBd8Yh3LwM5p7Cx0cd2bh-vJCRduFhQsf8ELb7lpdXChuiUACC7KccFdumRv-3kSFjwF1tBbph72A9JaxzKsyyATEljxCPr_EJ1sqZRa8ML6NMA1408omVCj8HUNLEqcdKcHJN5KN24kKnEWoZf8uIKmE7NrFiAe5aHOKlXWtShfnyOqNb4Njim56EsFqaIiYzhHSO7b8EHQvpsdSFkcnv2a-JshSG8AYdRmpBaY3MAxZOSvXhGvHIM6y8UADPXQxEzbznYc14Phd78lsM8ExpLcFnq1Fi4GY8vNYma8TYwdHNTe4InMkdX1yjmnNr52quHAMyOjTIIS2XWWxs5XmmYVLHuCs5Q-DhG_Esv86ZAxOKHgfO9CHbj4UnR7syJ8xa2Dse9l6q4STCMKdo3CyzHfX5qDkcRGZWznyZz3b8agY-CPlXQxQNSADwOE7QTNF0tQYsD-cX1410YSMM76FqlbwMQz9nIM5XQKwS-4y6TewNYtXbCV9F1ga_vU47KHvDqFJcVNEsllWpP_Vg2BdAE0TPQtgjAGPpa3a1np7DnRgHrH0k6ot7yyy9oLqucX-3VvvkO0MN2VpuMQsIJUmtSzAiB2pYIUqL8BBRcjRl3NtiH68TSaBRbFSTS-wcax9RIyQkTrfyoHF3MFnu1JznFO24wb4dO7EuYsZsZ25Go_mdekZOJpzaQp3zZtWDyAS3RKtm9VcRFJyRz0Od9Pm73lGTooyck0aLxLo8CjQzH4cqOnBPG4H37N1LkhHrTLzJp_H7GAzWG7qEsYrtQ8ykGIevB0kL65q94e0GmQjil-S0lSNKi3fCXojh6Evl151zp0naaJgrUyfwnY1fmf61EuyhuJfCXslXhlA2V3LSlE2u6rAfrfbfwLv_GtJRfYUWWBzCRPis0frJZ7a1YUXitPYFFqj21e172JHj_iYtKjNGwpY3PCvENNRS4bpR9jm5jig8X0opcHTmgfGbaExGVDCSFS5u8KVyPokdJOHRUz9bMzt3xQRq1b09yY_06X31-uJcap-lNU4rv-gzRkpz_XwUX240S_QX-3dyx4QzuzQSL8qlqHNne96RoQJUtERk8E_1hA2_LlK15M2LpLiKhvbAMWOB9s3Xala7Jg0CEXBFe0m10RWtbuzWqOr3BHHAe03ZCA_3wqiNFuF?></g></svg>